# Blender 4.2.0
# www.blender.org
o drone_body
v 0.249479 -0.378198 -2.433740
v 0.249479 0.513737 -2.433740
v 0.538273 -0.525122 -0.072366
v 0.430407 0.071944 0.943501
v 0.725884 0.069378 0.972832
v 0.876419 -0.527688 -0.043035
v 0.000000 1.125998 -0.388358
v 0.000000 0.513737 -2.433740
v 0.000000 -0.378198 -2.433740
v 0.000000 0.488920 -2.412548
v 0.000000 -0.349728 -2.413905
v -0.249479 -0.378198 -2.433740
v -0.249479 0.513737 -2.433740
v -0.538273 -0.525122 -0.072366
v -0.430407 0.071944 0.943501
v -0.725884 0.069378 0.972832
v -0.876419 -0.527688 -0.043035
v 0.562371 -0.486436 -0.039441
v 0.549558 -0.519083 -0.060457
v 0.582396 -0.495966 -0.053556
v 0.485661 0.863733 -0.130588
v 0.487119 0.847161 -0.148766
v 0.470763 0.886171 -0.170479
v 0.231549 -0.331378 -2.415344
v 0.245014 -0.371794 -2.433740
v 0.213139 -0.349890 -2.415438
v 0.213106 0.488709 -2.415389
v 0.245014 0.507333 -2.433740
v 0.231513 0.470260 -2.415344
v 0.225496 0.036762 1.271408
v 0.264274 0.015822 1.247644
v 0.243736 0.056843 1.280433
v 0.223082 0.847140 1.546086
v 0.241649 0.829317 1.540303
v 0.262247 0.866657 1.527822
v 0.156461 -0.824297 -1.414985
v 0.138059 -0.806012 -1.412921
v 0.174863 -0.789791 -1.392571
v 0.327937 0.655043 -2.415816
v 0.346423 0.636495 -2.415386
v 0.331162 0.630891 -2.433740
v 0.223205 -0.308774 -2.022585
v 0.223677 -0.288469 -2.003631
v 0.241606 -0.290221 -2.022086
v 0.223104 0.520086 -1.993273
v 0.241511 0.501577 -1.994019
v 0.223547 0.503060 -1.975573
v 0.379666 0.730252 1.205011
v 0.357918 0.744774 1.244288
v 0.377992 0.710812 1.217927
v 0.462736 0.056265 0.870743
v 0.478941 0.065838 0.895135
v 0.444726 0.065329 0.927324
v 0.057268 0.688103 2.142754
v 0.076268 0.669709 2.142820
v 0.095140 0.706527 2.161155
v 0.069397 0.264729 2.142754
v 0.108325 0.246305 2.161155
v 0.087344 0.283123 2.142820
v 0.141985 0.773773 2.142891
v 0.140234 0.753104 2.161155
v 0.161079 0.755247 2.142930
v 0.157934 0.178353 2.142992
v 0.175870 0.196962 2.142802
v 0.156088 0.199728 2.161155
v 0.022917 0.688103 1.739384
v 0.021936 0.669701 1.720982
v 0.041906 0.669709 1.739317
v 0.033011 0.283130 1.720982
v 0.035046 0.264729 1.739384
v 0.052982 0.283123 1.739317
v 0.316454 0.936314 1.509512
v 0.315186 0.917130 1.527822
v 0.335477 0.918326 1.503674
v 0.474256 1.125998 -0.388358
v 0.492711 1.107395 -0.388202
v 0.317978 -0.060393 1.210340
v 0.336382 -0.038852 1.210960
v 0.315972 -0.033328 1.232092
v 0.281063 -0.933955 -0.584307
v 0.288514 -0.921042 -0.556952
v 0.263945 -0.937833 -0.566364
v 0.591934 0.727102 1.241015
v 0.595618 0.707888 1.253908
v 0.615826 0.709700 1.238492
v 0.697929 0.860584 -0.094584
v 0.719444 0.842131 -0.091331
v 0.702462 0.843972 -0.112796
v 0.690985 0.053895 0.896101
v 0.709433 0.062964 0.954209
v 0.669641 0.064030 0.915125
v 0.829459 -0.489295 -0.014762
v 0.811915 -0.497502 -0.032765
v 0.859466 -0.521715 -0.033813
v 0.370006 0.099848 1.011739
v 0.372718 0.124591 1.036653
v 0.352710 0.094752 1.044960
v 0.476012 -0.590620 -0.157641
v 0.492867 -0.540927 -0.138178
v 0.488295 -0.551867 -0.125109
v 0.808455 0.114693 1.056167
v 0.788421 0.121087 1.075361
v 0.795366 0.096470 1.051489
v 0.954221 -0.555099 -0.085358
v 0.954307 -0.544320 -0.099106
v 0.969973 -0.531580 -0.079260
v 0.467795 0.137269 0.696978
v 0.486379 0.147617 0.681716
v 0.484013 0.150479 0.713321
v 0.566210 -0.417028 -0.078608
v 0.586448 -0.427811 -0.091699
v 0.585488 -0.401158 -0.085830
v 0.657042 0.136520 0.713868
v 0.634669 0.149341 0.727199
v 0.634854 0.146394 0.695381
v 0.803596 -0.418440 -0.054700
v 0.779617 -0.402916 -0.065469
v 0.787164 -0.429941 -0.071161
v 0.342459 -0.520246 -2.411044
v 0.331162 -0.495352 -2.433740
v 0.346411 -0.500484 -2.415385
v 0.492440 -0.941741 -0.373669
v 0.472582 -0.952151 -0.354914
v 0.486464 -0.960044 -0.376524
v 0.156461 -1.039109 -1.439235
v 0.174863 -1.077744 -1.425078
v 0.138059 -1.057394 -1.441299
v 0.281005 -1.107551 -0.620847
v 0.263945 -1.107943 -0.602174
v 0.262582 -1.125950 -0.624367
v 0.224665 -0.763860 -1.371171
v 0.204974 -0.759870 -1.389193
v 0.226015 -0.736678 -1.409825
v 0.206243 -1.125950 -1.412119
v 0.204974 -1.107665 -1.428456
v 0.224696 -1.107549 -1.409972
v 0.138059 -0.802670 -1.606557
v 0.138059 -0.786449 -1.586208
v 0.156461 -0.804735 -1.588272
v 0.138059 -1.017482 -1.630808
v 0.156461 -1.019546 -1.612522
v 0.138059 -1.037831 -1.614586
v 0.231586 -0.331223 -2.413866
v 0.213179 -0.349728 -2.413897
v 0.231580 0.470466 -2.412569
v 0.213173 0.488920 -2.412540
v 0.562373 -0.485626 -0.039902
v 0.582429 -0.495352 -0.053861
v 0.463194 0.063359 0.855528
v 0.479470 0.074675 0.876147
v 0.811793 -0.497178 -0.032991
v 0.828909 -0.487763 -0.015624
v 0.687814 0.061608 0.879087
v 0.665968 0.072991 0.895390
v 0.000000 -0.520207 -2.411225
v 0.000000 -0.495413 -2.433740
v 0.000000 0.630952 -2.433740
v 0.000000 0.655043 -2.415816
v 0.000000 -0.952144 -0.354918
v 0.000000 -0.959942 -0.377000
v 0.000000 -0.033345 1.230616
v 0.000000 -0.060403 1.208866
v 0.000000 0.936314 1.509512
v 0.000000 0.917089 1.527822
v 0.000000 -0.371733 -2.433740
v 0.000000 -0.349889 -2.415439
v 0.000000 0.488709 -2.415389
v 0.000000 0.507272 -2.433740
v 0.000000 -0.308775 -2.022761
v 0.000000 -0.288469 -2.003808
v 0.000000 0.503060 -1.975749
v 0.000000 0.520086 -1.993448
v 0.000000 0.036759 1.270359
v 0.000000 0.015841 1.246420
v 0.000000 0.866700 1.527822
v 0.000000 0.847140 1.546086
v 0.000000 0.199727 2.161155
v 0.000000 0.178356 2.142992
v 0.000000 0.773773 2.142891
v 0.000000 0.753105 2.161155
v 0.000000 0.264729 2.142754
v 0.000000 0.246306 2.161155
v 0.000000 0.706526 2.161155
v 0.000000 0.688103 2.142754
v 0.000000 0.283130 1.720982
v 0.000000 0.264729 1.739384
v 0.000000 0.688103 1.739384
v 0.000000 0.669701 1.720982
v 0.000000 -0.759870 -1.389193
v 0.000000 -0.736717 -1.409644
v 0.000000 -0.921144 -0.556477
v 0.000000 -0.937833 -0.566364
v 0.000000 -1.125950 -1.412119
v 0.000000 -1.107665 -1.428456
v 0.000000 -1.107943 -0.602174
v 0.000000 -1.125950 -0.624367
v 0.000000 -0.806012 -1.412921
v 0.000000 -0.789791 -1.392571
v 0.000000 -1.077744 -1.425078
v 0.000000 -1.057394 -1.441299
v 0.000000 -0.802670 -1.606557
v 0.000000 -0.786449 -1.586208
v 0.000000 -1.037831 -1.614586
v 0.000000 -1.017482 -1.630808
v -0.562372 -0.486436 -0.039441
v -0.582396 -0.495966 -0.053556
v -0.549558 -0.519083 -0.060457
v -0.485661 0.863733 -0.130588
v -0.470763 0.886171 -0.170479
v -0.487119 0.847161 -0.148766
v -0.231549 -0.331378 -2.415344
v -0.213139 -0.349890 -2.415438
v -0.245014 -0.371794 -2.433740
v -0.213106 0.488709 -2.415389
v -0.231513 0.470260 -2.415344
v -0.245014 0.507333 -2.433740
v -0.225496 0.036762 1.271408
v -0.243736 0.056843 1.280433
v -0.264274 0.015822 1.247644
v -0.223082 0.847140 1.546086
v -0.262247 0.866657 1.527822
v -0.241649 0.829317 1.540303
v -0.156461 -0.824297 -1.414985
v -0.174863 -0.789791 -1.392571
v -0.138059 -0.806012 -1.412921
v -0.331162 0.630891 -2.433740
v -0.346423 0.636495 -2.415386
v -0.327937 0.655043 -2.415816
v -0.223205 -0.308774 -2.022585
v -0.241606 -0.290221 -2.022086
v -0.223677 -0.288469 -2.003631
v -0.223104 0.520086 -1.993273
v -0.223547 0.503060 -1.975573
v -0.241511 0.501577 -1.994019
v -0.379666 0.730252 1.205011
v -0.377992 0.710812 1.217927
v -0.357918 0.744774 1.244288
v -0.444726 0.065329 0.927324
v -0.478941 0.065838 0.895135
v -0.462736 0.056265 0.870743
v -0.057268 0.688103 2.142754
v -0.095140 0.706527 2.161155
v -0.076268 0.669709 2.142820
v -0.069397 0.264729 2.142754
v -0.087344 0.283123 2.142820
v -0.108325 0.246305 2.161155
v -0.141985 0.773773 2.142891
v -0.161079 0.755247 2.142930
v -0.140234 0.753104 2.161155
v -0.156088 0.199728 2.161155
v -0.175870 0.196962 2.142802
v -0.157934 0.178353 2.142992
v -0.022917 0.688103 1.739384
v -0.041906 0.669709 1.739317
v -0.021936 0.669701 1.720982
v -0.033011 0.283130 1.720982
v -0.052982 0.283123 1.739317
v -0.035046 0.264729 1.739384
v -0.316454 0.936314 1.509512
v -0.335477 0.918326 1.503674
v -0.315186 0.917130 1.527822
v -0.492711 1.107395 -0.388202
v -0.474256 1.125998 -0.388358
v -0.315972 -0.033328 1.232092
v -0.336382 -0.038852 1.210960
v -0.317978 -0.060393 1.210340
v -0.281063 -0.933955 -0.584307
v -0.263945 -0.937833 -0.566364
v -0.288514 -0.921042 -0.556952
v -0.591934 0.727102 1.241015
v -0.615826 0.709700 1.238492
v -0.595618 0.707888 1.253908
v -0.697929 0.860584 -0.094584
v -0.702462 0.843972 -0.112796
v -0.719444 0.842131 -0.091331
v -0.690985 0.053895 0.896101
v -0.669641 0.064030 0.915125
v -0.709433 0.062964 0.954209
v -0.829459 -0.489295 -0.014762
v -0.859466 -0.521715 -0.033813
v -0.811915 -0.497502 -0.032765
v -0.352710 0.094752 1.044960
v -0.372718 0.124591 1.036653
v -0.370006 0.099848 1.011739
v -0.488295 -0.551867 -0.125109
v -0.492867 -0.540927 -0.138178
v -0.476012 -0.590620 -0.157641
v -0.795366 0.096470 1.051489
v -0.788421 0.121087 1.075361
v -0.808455 0.114693 1.056167
v -0.969973 -0.531580 -0.079260
v -0.954307 -0.544320 -0.099106
v -0.954221 -0.555099 -0.085358
v -0.467795 0.137269 0.696978
v -0.484013 0.150479 0.713321
v -0.486379 0.147617 0.681716
v -0.566210 -0.417028 -0.078608
v -0.585488 -0.401158 -0.085830
v -0.586448 -0.427811 -0.091699
v -0.657042 0.136520 0.713868
v -0.634854 0.146394 0.695381
v -0.634669 0.149341 0.727199
v -0.803596 -0.418440 -0.054700
v -0.787164 -0.429941 -0.071161
v -0.779617 -0.402916 -0.065469
v -0.346411 -0.500484 -2.415385
v -0.331162 -0.495352 -2.433740
v -0.342459 -0.520246 -2.411044
v -0.486464 -0.960044 -0.376524
v -0.472582 -0.952151 -0.354914
v -0.492440 -0.941741 -0.373669
v -0.156461 -1.039109 -1.439235
v -0.138059 -1.057394 -1.441299
v -0.174863 -1.077744 -1.425078
v -0.281005 -1.107551 -0.620847
v -0.262582 -1.125950 -0.624367
v -0.263945 -1.107943 -0.602174
v -0.224665 -0.763860 -1.371171
v -0.226015 -0.736678 -1.409825
v -0.204974 -0.759870 -1.389193
v -0.206243 -1.125950 -1.412119
v -0.224696 -1.107549 -1.409972
v -0.204974 -1.107665 -1.428456
v -0.138059 -0.802670 -1.606557
v -0.156461 -0.804735 -1.588272
v -0.138059 -0.786449 -1.586208
v -0.138059 -1.017482 -1.630808
v -0.138059 -1.037831 -1.614586
v -0.156461 -1.019546 -1.612522
v -0.213179 -0.349728 -2.413897
v -0.231586 -0.331223 -2.413866
v -0.213173 0.488920 -2.412540
v -0.231580 0.470466 -2.412569
v -0.582429 -0.495352 -0.053861
v -0.562373 -0.485626 -0.039902
v -0.479470 0.074675 0.876147
v -0.463194 0.063359 0.855528
v -0.828909 -0.487763 -0.015624
v -0.811793 -0.497178 -0.032991
v -0.665968 0.072991 0.895390
v -0.687814 0.061608 0.879087
vn -0.0000 0.0355 -0.9994
vn -0.0000 0.0354 -0.9994
vn 0.0008 0.0354 -0.9994
vn 0.9749 0.2143 0.0602
vn 0.9749 0.2142 0.0601
vn 0.9749 0.2142 0.0602
vn 0.9948 -0.0071 0.1011
vn 0.9948 -0.0071 0.1012
vn -0.0000 -0.0000 -1.0000
vn 0.4181 -0.0000 -0.9084
vn 0.4159 -0.0001 -0.9094
vn 0.9962 0.0021 0.0875
vn 0.9943 -0.0107 0.1058
vn 0.9974 -0.0004 -0.0716
vn 0.9974 -0.0004 -0.0717
vn -0.0000 -0.9774 -0.2113
vn -0.0000 0.9946 -0.1041
vn 0.0001 0.9946 -0.1041
vn -0.1145 -0.3080 0.9445
vn -0.1145 -0.3081 0.9444
vn -0.0000 -0.9972 0.0742
vn -0.0001 -0.9972 0.0742
vn -0.0000 -0.9972 0.0741
vn -0.0000 -0.9973 0.0741
vn -0.0001 0.9925 0.1220
vn -0.0000 0.9925 0.1221
vn -0.0000 0.9925 0.1220
vn -0.0000 -0.9871 0.1603
vn -0.0005 -0.9871 0.1602
vn -0.0000 -0.0000 1.0000
vn -0.0000 0.2054 0.9787
vn -0.0000 -0.2872 0.9579
vn 0.4198 0.0115 0.9075
vn -0.0000 0.0001 1.0000
vn 0.1439 -0.3011 0.9427
vn 0.4466 -0.2686 0.8535
vn -0.0000 0.2700 0.9629
vn -0.9960 -0.0286 0.0848
vn -0.9960 -0.0285 0.0848
vn -0.3148 -0.9488 0.0268
vn -0.0000 -1.0000 -0.0000
vn -0.3663 -0.0105 0.9305
vn -0.3548 -0.0102 0.9349
vn 0.0001 -0.0000 1.0000
vn 0.1102 0.0016 -0.9939
vn 0.1102 0.0015 -0.9939
vn -0.8066 -0.0001 -0.5912
vn -0.8066 -0.0000 -0.5911
vn -0.9997 -0.0005 0.0246
vn -0.9997 -0.0005 0.0247
vn -0.0070 -0.9997 -0.0216
vn -0.0069 -0.9997 -0.0216
vn 0.0337 -0.9071 -0.4197
vn 0.0336 -0.9071 -0.4197
vn -0.6133 -0.7165 0.3325
vn -0.6133 -0.7165 0.3324
vn -0.9497 -0.3102 0.0417
vn -0.9497 -0.3102 0.0418
vn 0.9967 -0.0073 0.0807
vn 0.9967 -0.0072 0.0807
vn -0.0797 0.4804 0.8734
vn -0.0021 0.9951 0.0993
vn 0.0619 -0.8605 0.5056
vn -0.1215 -0.8661 0.4849
vn -0.1214 -0.8661 0.4849
vn 0.7716 -0.5146 0.3739
vn -0.0642 -0.8153 0.5755
vn -0.0643 -0.8153 0.5755
vn 0.0619 -0.8605 0.5057
vn 0.7716 -0.5147 0.3738
vn -0.9497 -0.3103 0.0417
vn 0.9952 0.0543 0.0818
vn -0.0000 -0.2060 0.9785
vn -0.0000 -0.2060 0.9786
vn 0.9975 0.0102 -0.0703
vn 0.9975 0.0101 -0.0702
vn -0.0000 0.1122 -0.9937
vn -0.0000 0.0001 -1.0000
vn -0.0000 -0.9937 -0.1122
vn -0.0000 0.9937 0.1121
vn -0.0000 0.9937 0.1122
vn -0.4159 -0.0001 -0.9094
vn -0.0000 0.4219 -0.9066
vn -0.0000 -0.3341 -0.9425
vn 0.2726 -0.2019 -0.9407
vn -0.0000 0.5361 -0.8442
vn -0.3240 0.1274 -0.9374
vn -0.3498 -0.1183 -0.9293
vn -0.0000 -0.5836 -0.8121
vn 0.1439 -0.3012 0.9426
vn -0.0000 -0.3060 0.9520
vn -0.0000 -0.4493 0.8934
vn 0.7182 -0.2046 0.6651
vn -0.0000 0.6417 -0.7669
vn -0.0000 0.6674 -0.7447
vn 0.4068 0.0112 0.9135
vn -0.0874 -0.1914 0.9776
vn -0.0875 -0.1913 0.9776
vn 0.0661 -0.8564 0.5120
vn -0.1264 -0.8627 0.4897
vn -0.1264 -0.8626 0.4898
vn -0.0000 -0.9774 -0.2112
vn 1.0000 -0.0000 -0.0000
vn -0.0000 0.9741 -0.2262
vn -0.0000 0.9950 0.0995
vn -0.0000 0.9950 0.0994
vn -0.0000 -0.1996 0.9799
vn -0.0000 0.2934 0.9560
vn -0.0000 1.0000 -0.0000
vn 0.3178 -0.0986 -0.9430
vn -0.0000 -0.7522 -0.6589
vn 0.0001 -0.7025 -0.7117
vn -0.0000 -0.8688 0.4951
vn -0.0009 -0.8688 0.4952
vn -0.0000 -0.8688 0.4952
vn -0.0000 0.9741 -0.2263
vn -0.0000 -0.2092 -0.9779
vn -0.0000 -0.2766 -0.9610
vn 0.1145 -0.3080 0.9445
vn -0.9749 0.2143 0.0602
vn -0.4181 -0.0000 -0.9084
vn 0.8066 -0.0000 -0.5911
vn 0.9997 -0.0005 0.0247
vn 0.9997 -0.0006 0.0247
vn 0.0004 -0.9871 0.1602
vn 0.0005 -0.9871 0.1603
vn 0.0001 -0.9972 0.0742
vn -0.9949 -0.0071 0.1011
vn -0.9948 -0.0072 0.1011
vn -0.9948 -0.0071 0.1011
vn -0.9962 0.0020 0.0875
vn -0.9974 -0.0004 -0.0716
vn -0.9943 -0.0108 0.1058
vn -0.9943 -0.0107 0.1058
vn -0.3178 -0.0986 -0.9430
vn -0.2726 -0.2019 -0.9407
vn 0.9960 -0.0286 0.0848
vn 0.9960 -0.0285 0.0848
vn 0.9960 -0.0285 0.0849
vn 0.3148 -0.9488 0.0268
vn -0.1102 0.0015 -0.9939
vn -0.1102 0.0016 -0.9939
vn 0.0021 0.9951 0.0993
vn 0.0020 0.9951 0.0992
vn 0.0070 -0.9997 -0.0216
vn -0.0336 -0.9071 -0.4196
vn -0.0337 -0.9071 -0.4196
vn 0.0069 -0.9997 -0.0216
vn 0.6133 -0.7165 0.3325
vn 0.9498 -0.3102 0.0417
vn 0.9497 -0.3102 0.0417
vn 0.6133 -0.7165 0.3324
vn -0.9967 -0.0073 0.0807
vn 0.0797 0.4804 0.8734
vn -0.9962 0.0021 0.0875
vn -0.9974 -0.0004 -0.0717
vn -0.0619 -0.8605 0.5056
vn -0.7716 -0.5147 0.3738
vn 0.1214 -0.8661 0.4849
vn 0.1215 -0.8661 0.4849
vn 0.0642 -0.8153 0.5755
vn 0.0643 -0.8153 0.5755
vn -0.0619 -0.8605 0.5057
vn 0.9498 -0.3102 0.0418
vn 0.9497 -0.3103 0.0417
vn -0.9952 0.0543 0.0818
vn -0.9975 0.0102 -0.0703
vn -0.9975 0.0102 -0.0702
vn -0.1439 -0.3012 0.9426
vn -0.7182 -0.2045 0.6651
vn -1.0000 -0.0000 -0.0000
vn -1.0000 -0.0000 0.0001
vn -0.7951 -0.4801 0.3707
vn -0.7951 -0.4800 0.3708
vn -0.0000 -0.9937 -0.1121
vn -0.1439 -0.3011 0.9427
vn -0.4466 -0.2686 0.8535
vn -0.0001 0.6418 -0.7669
vn 0.3240 0.1274 -0.9374
vn 0.3498 -0.1183 -0.9293
vn -0.0661 -0.8564 0.5120
vn 0.0010 0.0010 1.0000
vn -0.4067 0.0112 0.9135
vn -0.4198 0.0115 0.9075
vn 0.0874 -0.1913 0.9776
vn 0.0875 -0.1914 0.9776
vn 0.1264 -0.8627 0.4897
vn 0.1265 -0.8626 0.4898
vn -0.0000 0.1121 -0.9937
vn 0.3662 -0.0105 0.9305
vn 0.3547 -0.0102 0.9349
vn -0.0008 0.0354 -0.9994
vn -0.0007 0.0355 -0.9994
vn -0.0001 -0.7025 -0.7117
vn 0.0009 -0.8688 0.4952
vn 0.0009 -0.8686 0.4955
vn 0.7951 -0.4800 0.3708
vn 0.7951 -0.4801 0.3707
vt 0.712476 0.837086
vt 0.771489 0.867460
vt 0.753521 0.877123
vt 0.707455 0.856265
vt 0.531899 0.944696
vt 0.433737 0.942554
vt 0.456998 0.720013
vt 0.531884 0.814712
vt 0.741124 0.025437
vt 0.879466 0.116422
vt 0.808578 0.170284
vt 0.752759 0.133817
vt 0.639104 0.857080
vt 0.756563 0.949897
vt 0.761249 0.972230
vt 0.616462 0.856875
vt 0.316142 0.049103
vt 0.173930 0.149521
vt 0.151476 0.134933
vt 0.338794 0.002638
vt 0.335982 0.233053
vt 0.316142 0.049103
vt 0.338796 0.002639
vt 0.366008 0.257922
vt 0.294120 0.868520
vt 0.322436 0.868497
vt 0.322436 0.996875
vt 0.279532 0.996851
vt 0.648581 0.853613
vt 0.660225 0.819391
vt 0.708831 0.835621
vt 0.703792 0.855517
vt 0.502618 0.683628
vt 0.596884 0.794632
vt 0.534918 0.810976
vt 0.460962 0.714876
vt 0.792324 0.922693
vt 0.758670 0.938817
vt 0.754946 0.880169
vt 0.773677 0.870453
vt 0.882329 0.121944
vt 0.882742 0.165120
vt 0.811821 0.187373
vt 0.810933 0.173534
vt 0.700934 0.042015
vt 0.734931 0.024272
vt 0.748854 0.133466
vt 0.735068 0.140908
vt 0.749418 0.145272
vt 0.737847 0.149269
vt 0.736365 0.144753
vt 0.750413 0.137801
vt 0.887165 0.164294
vt 0.888111 0.114990
vt 0.898729 0.109686
vt 0.893718 0.163870
vt 0.750947 0.150798
vt 0.795312 0.178208
vt 0.761061 0.196386
vt 0.751655 0.180259
vt 0.797571 0.181950
vt 0.798923 0.189813
vt 0.761160 0.200702
vt 0.761511 0.198790
vt 0.750427 0.181962
vt 0.759396 0.198694
vt 0.758947 0.200361
vt 0.748648 0.182761
vt 0.574415 0.991993
vt 0.402808 0.968402
vt 0.431316 0.947248
vt 0.533629 0.948638
vt 0.286290 0.759203
vt 0.294120 0.868520
vt 0.279532 0.996851
vt 0.261491 0.736076
vt 0.753344 0.938969
vt 0.649687 0.858466
vt 0.649963 0.858414
vt 0.753380 0.938368
vt 0.558032 0.830078
vt 0.587930 0.825700
vt 0.586562 0.829391
vt 0.559353 0.832327
vt 0.548894 0.941539
vt 0.555085 0.833026
vt 0.556437 0.834802
vt 0.549112 0.941469
vt 0.157303 0.233058
vt 0.126995 0.257924
vt 0.577116 0.967942
vt 0.551196 0.945262
vt 0.560819 0.941651
vt 0.585998 0.956433
vt 0.400942 0.964778
vt 0.402467 0.720413
vt 0.450892 0.717764
vt 0.429772 0.944032
vt 0.594967 0.815739
vt 0.549370 0.824832
vt 0.537350 0.816744
vt 0.600932 0.800973
vt 0.579557 0.854211
vt 0.587948 0.951930
vt 0.563171 0.938797
vt 0.569361 0.853248
vt 0.542728 0.945023
vt 0.577506 0.976920
vt 0.578024 0.990351
vt 0.535489 0.946486
vt 0.537350 0.816744
vt 0.586562 0.829391
vt 0.579950 0.850276
vt 0.568823 0.849667
vt 0.549112 0.941469
vt 0.556437 0.834802
vt 0.566802 0.851456
vt 0.558762 0.938245
vt 0.654285 0.817247
vt 0.616462 0.856875
vt 0.637808 0.811262
vt 0.589539 0.831638
vt 0.603882 0.952892
vt 0.592780 0.953031
vt 0.581901 0.852243
vt 0.443020 0.406273
vt 0.469523 0.441202
vt 0.444666 0.454593
vt 0.430452 0.424479
vt 0.337483 0.398588
vt 0.439241 0.403795
vt 0.427449 0.422624
vt 0.361394 0.438113
vt 0.315302 0.437198
vt 0.323649 0.435122
vt 0.329249 0.444104
vt 0.322734 0.451586
vt 0.795355 0.928780
vt 0.803510 0.944020
vt 0.761249 0.972230
vt 0.348485 0.443814
vt 0.342996 0.461115
vt 0.325241 0.453604
vt 0.331554 0.444979
vt 0.308708 0.417855
vt 0.327756 0.411793
vt 0.323431 0.432194
vt 0.314100 0.434244
vt 0.650678 0.762911
vt 0.667930 0.776687
vt 0.331592 0.405419
vt 0.307519 0.414044
vt 0.306505 0.410636
vt 0.333060 0.399796
vt 0.655109 0.817544
vt 0.640235 0.857098
vt 0.756323 0.948682
vt 0.794941 0.927958
vt 0.737443 0.016263
vt 0.699359 0.037671
vt 0.696992 0.031417
vt 0.737568 0.004528
vt 0.648294 0.853647
vt 0.660026 0.819319
vt 0.157303 0.233058
vt 0.335982 0.233053
vt 0.366007 0.257922
vt 0.126995 0.257924
vt 0.800938 0.177415
vt 0.749418 0.145272
vt 0.750413 0.137801
vt 0.806455 0.174385
vt 0.609503 0.957339
vt 0.616900 0.963338
vt 0.577047 0.968019
vt 0.551146 0.945281
vt 0.593614 0.818721
vt 0.551446 0.826712
vt 0.544412 0.944644
vt 0.577385 0.974654
vt 0.608077 0.956197
vt 0.354030 0.463962
vt 0.361963 0.442181
vt 0.427342 0.426699
vt 0.440026 0.456192
vt 0.322436 0.759142
vt 0.322436 0.736137
vt 0.331390 0.413057
vt 0.347976 0.439644
vt 0.331698 0.442607
vt 0.325518 0.432935
vt 0.121383 0.241497
vt 0.061967 0.241497
vt 0.061967 0.002545
vt 0.101613 0.002545
vt 0.802634 0.189038
vt 0.806455 0.174385
vt 0.807662 0.188333
vt 0.738839 0.152346
vt 0.746964 0.150165
vt 0.749818 0.179827
vt 0.747751 0.180632
vt 0.353769 0.441202
vt 0.358286 0.440820
vt 0.753380 0.938368
vt 0.649963 0.858414
vt 0.704751 0.858150
vt 0.751942 0.880307
vt 0.792504 0.923059
vt 0.758664 0.939422
vt 0.756323 0.948682
vt 0.737443 0.016263
vt 0.737568 0.004528
vt 0.322436 0.733051
vt 0.263230 0.733051
vt 0.282599 0.507361
vt 0.322436 0.507522
vt 0.599459 0.032273
vt 0.613554 0.174019
vt 0.366008 0.257922
vt 0.338800 0.002638
vt 0.103052 0.502263
vt 0.061967 0.502263
vt 0.121383 0.241497
vt 0.346837 0.462523
vt 0.358286 0.440820
vt 0.350055 0.463529
vt 0.835775 0.577981
vt 0.793701 0.537056
vt 0.767945 0.475313
vt 0.820715 0.423014
vt 0.634542 0.426079
vt 0.762894 0.476918
vt 0.787832 0.534864
vt 0.607933 0.546306
vt 0.887578 0.193348
vt 0.815237 0.202933
vt 0.811821 0.187373
vt 0.650678 0.762911
vt 0.826919 0.762747
vt 0.808630 0.775560
vt 0.383381 0.736077
vt 0.358581 0.759203
vt 0.801850 0.781362
vt 0.801892 0.781791
vt 0.677307 0.782858
vt 0.677115 0.782625
vt 0.350751 0.868520
vt 0.365339 0.996851
vt 0.322436 0.996875
vt 0.801892 0.781791
vt 0.793907 0.845411
vt 0.720072 0.818035
vt 0.700934 0.042015
vt 0.720858 0.143897
vt 0.665162 0.049728
vt 0.794775 0.852687
vt 0.820281 0.908913
vt 0.002552 0.241497
vt 0.022321 0.002545
vt 0.061967 0.002545
vt 0.661746 0.053642
vt 0.718425 0.146257
vt 0.702366 0.203339
vt 0.633071 0.174241
vt 0.211376 0.804932
vt 0.257840 0.782280
vt 0.125546 0.969598
vt 0.110958 0.947143
vt 0.277056 0.468066
vt 0.271854 0.472529
vt 0.276263 0.415964
vt 0.280909 0.420521
vt 0.738839 0.152346
vt 0.747751 0.180632
vt 0.745831 0.181411
vt 0.731033 0.154934
vt 0.728541 0.157450
vt 0.745132 0.182988
vt 0.756181 0.203755
vt 0.715550 0.199526
vt 0.800070 0.195932
vt 0.760643 0.202947
vt 0.761160 0.200702
vt 0.798922 0.189813
vt 0.597612 0.362883
vt 0.631099 0.422795
vt 0.602791 0.548626
vt 0.569506 0.580160
vt 0.365339 0.996851
vt 0.350751 0.868520
vt 0.572612 0.582590
vt 0.605153 0.550692
vt 0.791812 0.540065
vt 0.832766 0.581823
vt 0.761339 0.446103
vt 0.759673 0.443836
vt 0.776464 0.417132
vt 0.781205 0.417393
vt 0.643966 0.409543
vt 0.644121 0.409346
vt 0.755689 0.445808
vt 0.756832 0.447899
vt 0.125546 0.969598
vt 0.002554 0.994078
vt 0.027421 0.963770
vt 0.625507 0.368711
vt 0.641821 0.363224
vt 0.648355 0.396906
vt 0.640866 0.405566
vt 0.027426 0.785092
vt 0.002557 0.755066
vt 0.257840 0.782278
vt 0.795884 0.414739
vt 0.817120 0.416088
vt 0.764214 0.471834
vt 0.762284 0.456939
vt 0.746446 0.413527
vt 0.742911 0.424713
vt 0.652256 0.395586
vt 0.647470 0.362860
vt 0.638117 0.414525
vt 0.634026 0.421458
vt 0.600713 0.359343
vt 0.615723 0.364968
vt 0.764214 0.471834
vt 0.759673 0.443836
vt 0.746371 0.426781
vt 0.750808 0.414818
vt 0.776464 0.417132
vt 0.644121 0.409346
vt 0.651185 0.400558
vt 0.743592 0.428146
vt 0.755689 0.445808
vt 0.775555 0.413088
vt 0.749644 0.411933
vt 0.648240 0.357177
vt 0.653127 0.345400
vt 0.270221 0.416218
vt 0.265974 0.471726
vt 0.140893 0.447866
vt 0.140366 0.419317
vt 0.658625 0.045622
vt 0.651860 0.038055
vt 0.346837 0.462523
vt 0.350055 0.463529
vt 0.343592 0.489042
vt 0.340475 0.483942
vt 0.228206 0.521615
vt 0.257840 0.782274
vt 0.002557 0.755066
vt 0.086460 0.507520
vt 0.314100 0.434244
vt 0.305048 0.439489
vt 0.288195 0.424102
vt 0.285533 0.427697
vt 0.303895 0.442273
vt 0.307890 0.464268
vt 0.283013 0.462655
vt 0.779518 0.413179
vt 0.775555 0.413088
vt 0.653188 0.345291
vt 0.337023 0.477457
vt 0.314561 0.465972
vt 0.325241 0.453604
vt 0.342996 0.461115
vt 0.627599 0.177542
vt 0.619343 0.181978
vt 0.673097 0.785558
vt 0.673302 0.785785
vt 0.717306 0.819084
vt 0.708831 0.835621
vt 0.668867 0.777432
vt 0.807627 0.776270
vt 0.651428 0.339491
vt 0.650825 0.337466
vt 0.791838 0.414751
vt 0.711152 0.202308
vt 0.705877 0.205109
vt 0.722057 0.148032
vt 0.726497 0.152611
vt 0.647595 0.326871
vt 0.817120 0.416088
vt 0.625398 0.368759
vt 0.640866 0.405566
vt 0.640829 0.405610
vt 0.791838 0.414751
vt 0.761419 0.454114
vt 0.761419 0.454114
vt 0.639126 0.412929
vt 0.002554 0.994078
vt 0.002557 0.755066
vt 0.027426 0.785092
vt 0.618192 0.365940
vt 0.315302 0.437198
vt 0.311828 0.463183
vt 0.307071 0.442777
vt 0.450275 0.489800
vt 0.348314 0.489840
vt 0.481561 0.480617
vt 0.455352 0.488858
vt 0.444666 0.454593
vt 0.469523 0.441202
vt 0.280909 0.420521
vt 0.306505 0.410636
vt 0.307519 0.414044
vt 0.746994 0.183539
vt 0.748648 0.182761
vt 0.758947 0.200361
vt 0.758346 0.202403
vt 0.802634 0.189038
vt 0.807662 0.188333
vt 0.810993 0.203583
vt 0.804739 0.199289
vt 0.737847 0.149269
vt 0.712476 0.837086
vt 0.720995 0.821165
vt 0.792131 0.849581
vt 0.820454 0.909290
vt 0.827086 0.912255
vt 0.828080 0.912806
vt 0.794942 0.927958
vt 0.899895 0.202841
vt 0.892668 0.197295
vt 0.655109 0.817544
vt 0.668867 0.777432
vt 0.846176 0.922572
vt 0.803510 0.944020
vt 0.362273 0.507361
vt 0.381642 0.733051
vt 0.020883 0.502263
vt 0.002552 0.241497
vt 0.577240 0.971932
vt 0.575175 0.970086
vt 0.333383 0.230455
vt 0.333162 0.228410
vt 0.105331 0.502734
vt 0.103456 0.504568
vt 0.160181 0.230409
vt 0.160396 0.228545
vt 0.590789 0.828608
vt 0.101454 0.000239
vt 0.103967 0.003051
vt 0.735513 0.001703
vt 0.737607 0.000883
vt 0.441442 0.404050
vt 0.442596 0.401951
vt 0.454951 0.717750
vt 0.456909 0.717045
vt 0.178103 0.149397
vt 0.176012 0.150873
vt 0.173930 0.149521
vt 0.314526 0.055515
vt 0.314366 0.054136
vt 0.588469 0.957578
vt 0.588125 0.953813
vt 0.598708 0.029868
vt 0.601816 0.032685
vt 0.338333 0.001357
vt 0.338980 0.000327
vt 0.335381 0.398687
vt 0.333956 0.396360
vt 0.621157 0.367108
vt 0.622428 0.370047
vt 0.030024 0.787691
vt 0.032069 0.787911
vt 0.804496 0.778485
vt 0.801793 0.778442
vt 0.632822 0.177011
vt 0.630423 0.176024
vt 0.020479 0.504568
vt 0.018604 0.502734
vt 0.795839 0.845898
vt 0.793769 0.848054
vt 0.030070 0.960893
vt 0.031934 0.960678
vt 0.713239 0.201200
vt 0.713890 0.199172
vt 0.701957 0.205463
vt 0.704291 0.204398
vt 0.756673 0.204922
vt 0.757856 0.204139
vt 0.019967 0.003051
vt 0.022480 0.000239
vt 0.649759 0.035705
vt 0.651755 0.034978
vt 0.482342 0.483112
vt 0.485160 0.482454
vt 0.109606 0.945061
vt 0.111082 0.942971
vt 0.206343 0.806707
vt 0.204964 0.806548
vt 0.641517 0.360043
vt 0.645573 0.361868
vt 0.650057 0.760561
vt 0.647735 0.760561
vt 0.383381 0.735356
vt 0.384076 0.734451
vt 0.338570 0.480825
vt 0.339311 0.478600
vt 0.451377 0.492123
vt 0.452596 0.489803
vt 0.273424 0.413179
vt 0.273198 0.416133
vt 0.348187 0.492140
vt 0.346287 0.489831
vt 0.312273 0.464830
vt 0.313215 0.467686
vt 0.061967 0.504568
vt 0.123659 0.242003
vt 0.696129 0.029136
vt 0.123674 0.241248
vt 0.151121 0.132349
vt 0.336160 0.001688
vt 0.615779 0.173092
vt 0.738792 0.001009
vt 0.898781 0.105511
vt 0.162219 0.230753
vt 0.330892 0.230748
vt 0.312746 0.054322
vt 0.314514 0.055510
vt 0.175550 0.153198
vt 0.160543 0.228589
vt 0.459112 0.711477
vt 0.499990 0.680350
vt 0.603991 0.952879
vt 0.579255 0.969665
vt 0.442598 0.401948
vt 0.472154 0.439785
vt 0.579187 0.969754
vt 0.579151 0.969794
vt 0.322436 0.999761
vt 0.280947 0.999761
vt 0.061967 0.000239
vt 0.305886 0.408554
vt 0.384094 0.736209
vt 0.365800 0.997904
vt 0.000275 0.242003
vt 0.000260 0.241248
vt 0.364467 0.505967
vt 0.804719 0.781259
vt 0.804755 0.781700
vt 0.715287 0.201375
vt 0.827791 0.760561
vt 0.617223 0.180266
vt 0.649153 0.036350
vt 0.029731 0.790181
vt 0.029726 0.958855
vt 0.206157 0.808328
vt 0.204969 0.806559
vt 0.031890 0.960531
vt 0.107281 0.945524
vt 0.624406 0.365725
vt 0.137350 0.416427
vt 0.485164 0.482453
vt 0.451384 0.492159
vt 0.348183 0.492159
vt 0.482399 0.483296
vt 0.455590 0.491470
vt 0.336150 0.479571
vt 0.804760 0.781767
vt 0.624223 0.365791
vt 0.624280 0.365767
vt 0.363924 0.999761
s 1
f 170/1/1 171/2/2 47/3/3 43/4/3
f 106/5/4 87/6/5 85/7/4 101/8/6
f 32/9/7 34/10/7 62/11/8 64/12/8
f 1/13/9 2/14/9 41/15/10 120/16/11
f 98/17/12 97/18/13 78/19/13 122/20/14
f 23/21/12 98/22/12 122/23/14 76/24/15
f 133/25/16 190/26/16 155/27/16 119/28/16
f 144/29/17 11/30/17 169/31/17 42/32/18
f 50/33/19 96/34/20 102/35/19 84/36/19
f 10/37/21 146/38/22 45/39/23 172/40/24
f 33/41/25 176/42/26 179/43/27 60/44/27
f 173/45/28 30/46/29 63/47/29 178/48/28
f 58/49/30 182/50/31 177/51/32 65/52/33
f 175/53/34 35/54/35 73/55/36 164/56/37
f 59/57/38 55/58/39 68/59/38 71/60/39
f 54/61/40 184/62/41 187/63/41 66/64/41
f 69/65/42 67/66/43 188/67/44 185/68/30
f 99/69/45 22/70/45 88/71/46 105/72/45
f 81/73/16 133/74/16 119/75/16 124/76/16
f 29/77/47 24/78/48 143/79/49 145/80/50
f 91/81/51 52/82/52 150/83/53 154/84/54
f 92/85/55 89/86/56 153/87/57 152/88/58
f 97/18/13 49/89/59 74/90/60 78/19/13
f 148/91/61 151/92/61 118/93/61 111/94/61
f 21/95/62 48/96/62 83/97/62 86/98/62
f 4/99/63 5/100/64 103/101/65 95/102/66
f 108/103/67 112/104/67 117/105/68 115/106/68
f 6/107/64 3/108/69 100/109/70 104/110/64
f 5/100/64 6/107/64 104/110/64 103/111/65
f 154/84/54 150/112/53 109/113/53 114/114/54
f 152/115/58 153/116/57 113/117/71 116/118/57
f 9/119/9 1/13/9 120/120/11 156/121/9
f 149/122/72 147/123/72 110/124/72 107/125/72
f 82/126/73 192/127/73 195/128/73 129/129/74
f 131/130/75 80/131/76 128/132/75 136/133/75
f 201/134/77 137/135/77 140/136/77 204/137/77
f 2/14/9 8/138/9 157/139/78 41/140/10
f 127/141/79 200/142/79 203/143/79 142/144/79
f 197/145/80 37/146/81 138/147/81 202/148/81
f 9/119/9 156/121/9 307/149/82 12/150/9
f 38/151/77 198/152/83 189/153/84 132/154/85
f 165/155/86 25/156/87 1/13/9 9/119/9
f 28/157/88 168/158/89 8/138/9 2/14/9
f 31/159/90 174/160/91 161/161/92 79/162/93
f 26/163/94 166/164/95 11/30/17 144/29/17
f 49/165/59 23/166/12 76/167/15 74/168/60
f 56/169/30 58/170/30 65/171/33 61/172/96
f 3/173/69 4/99/63 95/102/66 100/174/70
f 20/175/97 93/176/98 151/92/61 148/91/61
f 53/177/99 90/178/100 5/100/64 4/99/63
f 90/178/100 94/179/101 6/107/64 5/100/64
f 94/179/101 19/180/99 3/108/69 6/107/64
f 19/181/99 53/177/99 4/99/63 3/173/69
f 193/182/41 134/183/41 130/184/41 196/185/41
f 191/186/16 81/73/16 124/76/16 160/187/102
f 36/188/103 125/189/103 141/190/103 139/191/103
f 75/192/104 7/193/104 163/194/105 72/195/106
f 183/196/107 56/169/30 61/197/96 180/198/108
f 181/199/109 57/200/109 70/201/109 186/202/109
f 126/203/77 38/151/77 132/154/85 135/204/110
f 145/205/50 143/206/49 44/207/50 46/208/49
f 167/209/111 27/210/112 146/38/22 10/37/21
f 25/156/87 28/211/88 2/14/9 1/13/9
f 35/54/35 31/212/90 79/213/93 73/55/36
f 159/214/113 123/215/114 77/216/114 162/217/115
f 121/218/15 40/219/14 76/220/15 122/221/14
f 39/222/104 158/223/116 7/193/104 75/224/104
f 199/225/117 126/203/77 135/226/110 194/227/118
f 236/228/119 272/229/119 289/230/119 283/231/119
f 291/232/120 290/233/120 271/234/120 275/235/120
f 220/236/27 247/237/27 179/238/27 176/42/26
f 12/150/9 307/239/82 226/240/121 13/241/9
f 191/186/16 160/187/102 309/242/16 269/243/16
f 215/244/122 333/245/123 331/246/123 211/247/122
f 319/248/16 308/249/16 155/250/16 190/26/16
f 333/251/123 234/252/124 230/253/123 331/246/123
f 173/254/28 178/48/28 252/255/125 217/256/126
f 10/37/21 172/40/24 232/257/24 332/258/127
f 263/259/116 259/260/106 163/261/105 7/193/104
f 218/262/128 251/263/129 248/264/130 222/265/130
f 287/266/131 311/267/132 265/268/133 282/269/134
f 314/270/77 323/271/135 320/272/136 224/273/77
f 181/274/109 186/275/109 258/276/109 244/277/109
f 245/278/137 257/279/138 254/280/139 243/281/139
f 241/282/140 253/283/41 187/284/41 184/285/41
f 286/286/141 292/287/141 274/288/142 210/289/141
f 269/243/16 309/242/16 308/290/16 319/291/16
f 208/292/143 273/293/143 270/294/143 235/295/144
f 277/296/145 340/297/146 336/298/147 239/299/148
f 279/300/149 338/301/150 341/302/151 276/303/152
f 282/269/134 265/304/133 260/305/153 237/306/153
f 334/307/154 299/308/154 304/309/154 339/310/154
f 209/311/155 262/312/156 311/313/132 287/266/131
f 15/314/157 284/315/158 288/316/159 16/317/160
f 296/318/161 301/319/162 305/320/162 298/321/161
f 17/322/160 293/323/160 285/324/158 14/325/163
f 16/317/160 288/326/159 293/323/160 17/322/160
f 340/327/146 302/328/146 295/329/147 336/330/147
f 338/331/150 303/332/164 300/333/165 341/334/151
f 337/335/166 294/336/166 297/337/166 335/338/166
f 318/339/167 322/340/168 315/341/167 267/342/168
f 219/343/169 264/344/170 161/161/92 174/160/91
f 199/345/117 194/346/118 323/347/135 314/348/77
f 306/349/156 311/350/132 262/351/156 227/352/132
f 197/145/80 202/353/81 326/354/81 225/355/81
f 223/356/171 325/357/172 329/358/171 312/359/171
f 240/360/173 337/361/166 335/338/166 205/362/174
f 313/363/79 328/364/175 203/365/79 200/366/79
f 221/367/176 261/368/177 264/344/170 219/343/169
f 212/369/178 330/370/17 11/30/17 166/164/95
f 330/370/17 229/371/17 169/372/17 11/30/17
f 213/373/179 12/150/9 13/241/9 216/374/180
f 207/375/181 14/376/163 15/314/157 238/377/181
f 242/378/182 249/379/183 250/380/184 246/381/30
f 14/376/163 285/382/158 284/383/158 15/314/157
f 206/384/185 334/307/154 339/385/154 281/386/186
f 238/387/181 15/314/157 16/317/160 278/388/187
f 278/389/187 16/317/160 17/322/160 280/390/188
f 237/306/153 260/391/153 262/392/156 209/393/155
f 280/390/188 17/322/160 14/325/163 207/394/181
f 201/395/77 204/137/77 327/396/77 324/397/189
f 193/182/41 196/185/41 316/398/41 321/399/41
f 268/400/73 317/401/74 195/402/73 192/403/73
f 224/404/77 320/272/136 189/405/84 198/406/83
f 256/407/190 185/408/30 188/409/44 255/410/191
f 183/411/107 180/412/108 249/413/183 242/414/182
f 246/381/30 250/380/184 177/51/32 182/415/31
f 170/416/1 231/417/192 233/418/193 171/2/2
f 167/209/111 10/37/21 332/258/127 214/419/194
f 216/420/180 13/421/9 8/138/9 168/422/89
f 175/53/34 164/56/37 261/423/177 221/424/176
f 165/425/86 9/119/9 12/150/9 213/426/179
f 13/421/9 226/427/121 157/428/78 8/138/9
f 159/214/113 162/217/115 266/429/195 310/430/196
f 228/431/104 263/432/116 7/193/104 158/223/116
f 18/433/197 19/180/99 20/434/97
f 21/435/62 22/436/45 23/21/12
f 24/78/48 25/156/87 26/163/94
f 27/210/112 28/211/88 29/77/47
f 30/46/29 31/212/90 32/9/7
f 33/41/25 34/10/7 35/54/35
f 36/188/103 37/146/81 38/151/77
f 39/222/104 40/437/14 41/438/10
f 42/32/18 43/4/3 44/207/50
f 45/39/23 46/208/49 47/3/3
f 48/439/62 49/89/59 50/440/19
f 51/441/198 52/82/52 53/177/99
f 54/61/40 55/58/39 56/169/30
f 57/200/109 58/170/30 59/57/38
f 60/44/27 61/172/96 62/11/8
f 63/47/29 64/12/8 65/52/33
f 66/64/41 67/66/43 68/59/38
f 69/65/42 70/201/109 71/60/39
f 72/195/106 73/442/36 74/443/60
f 77/444/114 78/445/13 79/162/93
f 80/446/76 81/447/16 82/126/73
f 83/448/62 84/449/19 85/7/4
f 86/98/62 87/6/5 88/71/46
f 89/86/56 90/178/100 91/81/51
f 92/85/55 93/176/98 94/179/101
f 95/450/66 96/451/20 97/452/13
f 98/22/12 99/453/45 100/454/70
f 101/8/6 102/35/19 103/111/65
f 104/110/64 105/72/45 106/5/4
f 107/125/72 108/103/67 109/113/53
f 110/455/72 111/94/61 112/456/67
f 113/117/71 114/114/54 115/106/68
f 116/118/57 117/105/68 118/93/61
f 119/457/16 120/458/11 121/218/15
f 122/221/14 123/459/114 124/460/16
f 125/189/103 126/203/77 127/141/79
f 128/132/75 129/129/74 130/184/41
f 131/461/75 132/154/85 133/462/16
f 134/183/41 135/204/110 136/133/75
f 137/135/77 138/147/81 139/191/103
f 140/136/77 141/190/103 142/144/79
f 205/463/174 206/464/185 207/394/181
f 208/465/143 209/311/155 210/466/141
f 211/247/122 212/369/178 213/373/179
f 214/467/194 215/468/122 216/374/180
f 217/256/126 218/262/128 219/343/169
f 220/469/27 221/470/176 222/265/130
f 223/356/171 224/404/77 225/355/81
f 226/471/121 227/472/132 228/431/104
f 229/371/17 230/253/123 231/417/192
f 232/473/24 233/474/193 234/252/124
f 235/475/144 236/476/119 237/306/153
f 238/387/181 239/299/148 240/360/173
f 241/477/140 242/378/182 243/478/139
f 244/277/109 245/278/137 246/381/30
f 247/479/27 248/264/130 249/480/183
f 250/380/184 251/263/129 252/255/125
f 253/481/41 254/280/139 255/482/191
f 256/407/190 257/279/138 258/276/109
f 259/260/106 260/483/153 261/484/177
f 264/344/170 265/485/133 266/486/195
f 267/487/168 268/400/73 269/488/16
f 270/294/143 271/234/120 272/229/119
f 273/293/143 274/288/142 275/235/120
f 276/303/152 277/296/145 278/389/187
f 279/300/149 280/390/188 281/386/186
f 282/269/134 283/489/119 284/490/158
f 285/491/158 286/492/141 287/266/131
f 288/316/159 289/230/119 290/233/120
f 291/232/120 292/287/141 293/323/160
f 294/336/166 295/329/147 296/318/161
f 297/493/166 298/494/161 299/308/154
f 300/333/165 301/319/162 302/328/146
f 303/332/164 304/309/154 305/320/162
f 306/495/156 307/239/82 308/496/16
f 309/497/16 310/430/196 311/498/132
f 312/499/171 313/500/79 314/348/77
f 315/501/167 316/398/41 317/502/74
f 318/339/167 319/503/16 320/504/136
f 321/399/41 322/505/168 323/506/135
f 324/397/189 325/357/172 326/354/81
f 327/507/77 328/364/175 329/508/171
f 158/223/116 39/222/104 41/438/10 157/509/78
f 124/460/16 119/457/16 121/218/15 122/221/14
f 39/222/104 75/224/104 76/510/15 40/437/14
f 160/187/102 124/76/16 123/215/114 159/214/113
f 162/511/115 77/444/114 79/162/93 161/161/92
f 74/443/60 76/512/15 75/192/104 72/195/106
f 77/513/114 123/514/114 122/20/14 78/19/13
f 168/158/89 28/157/88 27/210/112 167/209/111
f 172/40/24 45/39/23 47/3/3 171/2/2
f 144/29/17 42/32/18 44/207/50 143/206/49
f 146/38/22 27/210/112 29/77/47 145/80/50
f 174/160/91 31/159/90 30/46/29 173/45/28
f 178/48/28 63/47/29 65/52/33 177/51/32
f 32/9/7 64/12/8 63/47/29 30/46/29
f 62/11/8 34/10/7 33/41/25 60/44/27
f 182/50/31 58/49/30 57/200/109 181/199/109
f 186/202/109 70/201/109 69/65/42 185/68/30
f 54/61/40 66/64/41 68/59/38 55/58/39
f 70/201/109 57/200/109 59/57/38 71/60/39
f 40/219/14 121/218/15 120/458/11 41/515/10
f 73/55/36 79/213/93 78/516/13 74/517/60
f 28/211/88 25/156/87 24/78/48 29/77/47
f 46/208/49 44/207/50 43/4/3 47/3/3
f 34/10/7 32/9/7 31/212/90 35/54/35
f 61/172/96 65/171/33 64/12/8 62/11/8
f 55/58/39 59/57/38 58/170/30 56/169/30
f 67/66/43 69/65/42 71/60/39 68/59/38
f 48/518/62 21/519/62 23/166/12 49/165/59
f 97/18/13 98/17/12 100/520/70 95/450/66
f 22/436/45 99/521/45 98/22/12 23/21/12
f 49/89/59 97/18/13 96/522/20 50/523/19
f 85/7/4 87/6/5 86/98/62 83/97/62
f 103/111/65 104/110/64 106/5/4 101/8/6
f 87/6/5 106/5/4 105/72/45 88/71/46
f 84/36/19 102/35/19 101/8/6 85/7/4
f 50/33/19 84/36/19 83/524/62 48/525/62
f 88/71/46 22/70/45 21/95/62 86/98/62
f 95/102/66 103/101/65 102/35/19 96/34/20
f 99/69/45 105/72/45 104/110/64 100/109/70
f 53/177/99 19/181/99 18/526/197 51/441/198
f 89/86/56 92/85/55 94/179/101 90/178/100
f 52/82/52 91/81/51 90/178/100 53/177/99
f 19/180/99 94/179/101 93/176/98 20/175/97
f 107/125/72 110/124/72 112/104/67 108/103/67
f 115/106/68 117/105/68 116/118/57 113/117/71
f 108/103/67 115/106/68 114/114/54 109/113/53
f 111/94/61 118/93/61 117/105/68 112/104/67
f 148/91/61 111/94/61 110/455/72 147/527/72
f 150/83/53 52/82/52 51/441/198 149/122/72
f 152/115/58 116/118/57 118/93/61 151/92/61
f 154/84/54 114/114/54 113/117/71 153/116/57
f 80/131/76 131/130/75 133/462/16 81/528/16
f 192/127/73 82/126/73 81/528/16 191/529/16
f 130/184/41 134/183/41 136/133/75 128/132/75
f 196/185/41 130/184/41 129/129/74 195/128/73
f 82/126/73 129/129/74 128/132/75 80/131/76
f 135/204/110 132/154/85 131/130/75 136/133/75
f 125/189/103 36/188/103 38/151/77 126/203/77
f 140/136/77 137/135/77 139/191/103 141/190/103
f 127/141/79 142/144/79 141/190/103 125/189/103
f 138/147/81 37/146/81 36/188/103 139/191/103
f 26/163/94 144/29/17 143/79/49 24/78/48
f 45/39/23 146/38/22 145/205/50 46/208/49
f 20/175/97 148/91/61 147/530/72 18/531/197
f 109/113/53 150/112/53 149/122/72 107/125/72
f 92/85/55 152/88/58 151/92/61 93/176/98
f 91/81/51 154/84/54 153/87/57 89/86/56
f 119/28/16 155/27/16 156/532/9 120/533/11
f 72/195/106 163/194/105 164/534/37 73/442/36
f 25/156/87 165/155/86 166/164/95 26/163/94
f 42/32/18 169/31/17 170/1/1 43/4/3
f 35/54/35 175/53/34 176/42/26 33/41/25
f 60/44/27 179/43/27 180/198/108 61/197/96
f 56/169/30 183/196/107 184/62/41 54/61/40
f 66/64/41 187/63/41 188/67/44 67/66/43
f 132/154/85 189/153/84 190/535/16 133/462/16
f 134/183/41 193/182/41 194/227/118 135/226/110
f 37/146/81 197/145/80 198/152/83 38/151/77
f 126/203/77 199/225/117 200/142/79 127/141/79
f 137/135/77 201/134/77 202/148/81 138/147/81
f 142/144/79 203/143/79 204/137/77 140/136/77
f 157/509/78 226/471/121 228/431/104 158/223/116
f 311/536/132 306/537/156 308/290/16 309/242/16
f 227/472/132 262/538/156 263/432/116 228/431/104
f 159/214/113 310/430/196 309/242/16 160/187/102
f 161/161/92 264/344/170 266/486/195 162/511/115
f 259/260/106 263/259/116 262/539/156 260/483/153
f 265/540/133 311/498/132 310/430/196 266/429/195
f 167/209/111 214/419/194 216/420/180 168/422/89
f 171/2/2 233/418/193 232/257/24 172/40/24
f 331/246/123 230/253/123 229/371/17 330/370/17
f 333/245/123 215/244/122 214/541/194 332/542/127
f 173/254/28 217/256/126 219/343/169 174/160/91
f 177/51/32 250/380/184 252/255/125 178/48/28
f 217/256/126 252/255/125 251/263/129 218/262/128
f 247/479/27 220/469/27 222/265/130 248/264/130
f 181/274/109 244/277/109 246/381/30 182/415/31
f 185/408/30 256/407/190 258/276/109 186/275/109
f 243/281/139 254/280/139 253/481/41 241/543/140
f 257/279/138 245/278/137 244/277/109 258/276/109
f 226/240/121 307/239/82 306/495/156 227/544/132
f 260/545/153 265/546/133 264/344/170 261/368/177
f 215/244/122 211/247/122 213/373/179 216/374/180
f 233/418/193 231/417/192 230/253/123 234/252/124
f 221/367/176 219/343/169 218/262/128 222/265/130
f 248/264/130 251/263/129 250/380/184 249/379/183
f 242/378/182 246/381/30 245/278/137 243/281/139
f 254/280/139 257/279/138 256/407/190 255/410/191
f 237/306/153 209/393/155 208/547/143 235/548/144
f 284/490/158 285/549/158 287/266/131 282/269/134
f 209/311/155 287/266/131 286/550/141 210/466/141
f 236/551/119 283/552/119 282/269/134 237/306/153
f 270/294/143 273/293/143 275/235/120 271/234/120
f 290/233/120 291/232/120 293/323/160 288/326/159
f 274/288/142 292/287/141 291/232/120 275/235/120
f 271/234/120 290/233/120 289/230/119 272/229/119
f 235/295/144 270/294/143 272/229/119 236/228/119
f 273/293/143 208/292/143 210/289/141 274/288/142
f 283/231/119 289/230/119 288/316/159 284/315/158
f 285/324/158 293/323/160 292/287/141 286/286/141
f 240/360/173 205/362/174 207/375/181 238/377/181
f 278/389/187 280/390/188 279/300/149 276/303/152
f 238/387/181 278/388/187 277/296/145 239/299/148
f 206/384/185 281/386/186 280/390/188 207/394/181
f 296/318/161 298/321/161 297/337/166 294/336/166
f 300/333/165 303/332/164 305/320/162 301/319/162
f 295/329/147 302/328/146 301/319/162 296/318/161
f 298/321/161 305/320/162 304/309/154 299/308/154
f 335/553/166 297/493/166 299/308/154 334/307/154
f 337/361/166 240/360/173 239/299/148 336/298/147
f 339/310/154 304/309/154 303/332/164 338/331/150
f 341/334/151 300/333/165 302/328/146 340/327/146
f 269/554/16 319/503/16 318/339/167 267/342/168
f 191/529/16 269/555/16 268/400/73 192/403/73
f 315/556/167 322/557/168 321/399/41 316/398/41
f 195/402/73 317/401/74 316/398/41 196/185/41
f 267/558/168 315/559/167 317/401/74 268/400/73
f 322/340/168 318/339/167 320/272/136 323/271/135
f 314/270/77 224/273/77 223/356/171 312/359/171
f 329/358/171 325/357/172 324/397/189 327/396/77
f 312/560/171 329/508/171 328/364/175 313/363/79
f 325/357/172 223/356/171 225/355/81 326/354/81
f 211/247/122 331/246/123 330/370/17 212/369/178
f 234/252/124 333/251/123 332/561/127 232/473/24
f 205/562/174 335/563/166 334/307/154 206/384/185
f 294/336/166 337/335/166 336/330/147 295/329/147
f 281/386/186 339/385/154 338/301/150 279/300/149
f 276/303/152 341/302/151 340/297/146 277/296/145
f 307/564/82 156/532/9 155/250/16 308/249/16
f 261/484/177 164/534/37 163/261/105 259/260/106
f 212/369/178 166/164/95 165/425/86 213/426/179
f 231/417/192 170/416/1 169/372/17 229/371/17
f 220/236/27 176/42/26 175/53/34 221/424/176
f 249/413/183 180/412/108 179/238/27 247/237/27
f 241/282/140 184/285/41 183/411/107 242/414/182
f 255/410/191 188/409/44 187/284/41 253/283/41
f 319/503/16 190/535/16 189/405/84 320/272/136
f 323/347/135 194/346/118 193/182/41 321/399/41
f 224/404/77 198/406/83 197/145/80 225/355/81
f 313/363/79 200/366/79 199/345/117 314/348/77
f 326/354/81 202/353/81 201/395/77 324/397/189
f 327/396/77 204/137/77 203/365/79 328/364/175
f 51/441/198 18/526/197 147/123/72 149/122/72
o gun
v -0.003520 -0.772911 -2.047755
v -0.003520 -0.826449 -1.478826
v 0.035487 -0.783276 -2.049099
v 0.045515 -0.839479 -1.480515
v 0.064042 -0.811594 -2.052770
v 0.081412 -0.875077 -1.485131
v 0.074494 -0.850277 -2.057786
v 0.094550 -0.923705 -1.491436
v 0.064042 -0.888960 -2.062801
v 0.081412 -0.972333 -1.497740
v 0.035487 -0.917278 -2.066472
v 0.045515 -1.007931 -1.502355
v -0.003520 -0.927643 -2.067816
v -0.003520 -1.020961 -1.504045
v -0.042526 -0.917278 -2.066472
v -0.052555 -1.007931 -1.502355
v -0.071081 -0.888960 -2.062801
v -0.088451 -0.972333 -1.497740
v -0.081533 -0.850277 -2.057786
v -0.101590 -0.923705 -1.491436
v -0.071081 -0.811594 -2.052770
v -0.088451 -0.875077 -1.485131
v -0.042526 -0.783276 -2.049099
v -0.052555 -0.839479 -1.480515
v -0.003520 -0.753021 -2.045176
v 0.045515 -0.766051 -2.046865
v 0.081412 -0.801649 -2.051481
v 0.094550 -0.850277 -2.057786
v 0.081412 -0.898905 -2.064090
v 0.045515 -0.934503 -2.068706
v -0.003520 -0.947533 -2.070395
v -0.052555 -0.934503 -2.068706
v -0.088451 -0.898905 -2.064090
v -0.101590 -0.850277 -2.057786
v -0.088451 -0.801649 -2.051481
v -0.052555 -0.766051 -2.046865
v -0.003520 -0.762474 -2.265770
v 0.026647 -0.770490 -2.266809
v 0.048730 -0.792390 -2.269649
v 0.056813 -0.822306 -2.273527
v 0.048730 -0.852222 -2.277406
v 0.026647 -0.874122 -2.280245
v -0.003520 -0.882138 -2.281285
v -0.033686 -0.874122 -2.280245
v -0.055769 -0.852222 -2.277406
v -0.063852 -0.822306 -2.273527
v -0.055769 -0.792390 -2.269649
v -0.033686 -0.770490 -2.266809
v -0.003520 -0.744940 -2.263497
v 0.035487 -0.755305 -2.264841
v 0.064042 -0.783623 -2.268512
v 0.074494 -0.822306 -2.273527
v 0.064042 -0.860989 -2.278543
v 0.035487 -0.889307 -2.282214
v -0.003520 -0.899672 -2.283558
v -0.042526 -0.889307 -2.282214
v -0.071081 -0.860989 -2.278543
v -0.081533 -0.822306 -2.273527
v -0.071081 -0.783623 -2.268512
v -0.042526 -0.755305 -2.264841
v -0.003520 -0.660151 -3.054984
v 0.026647 -0.668167 -3.056024
v 0.048730 -0.690067 -3.058863
v 0.056813 -0.719983 -3.062742
v 0.048730 -0.749899 -3.066620
v 0.026647 -0.771799 -3.069459
v -0.003520 -0.779815 -3.070499
v -0.033686 -0.771799 -3.069459
v -0.055769 -0.749899 -3.066620
v -0.063852 -0.719983 -3.062742
v -0.055769 -0.690067 -3.058863
v -0.033686 -0.668167 -3.056024
v -0.003520 -0.635262 -3.051758
v 0.039195 -0.646613 -3.053229
v 0.070465 -0.677623 -3.057250
v 0.081910 -0.719983 -3.062742
v 0.070465 -0.762344 -3.068234
v 0.039195 -0.793354 -3.072254
v -0.003520 -0.804704 -3.073726
v -0.046235 -0.793354 -3.072254
v -0.077504 -0.762344 -3.068234
v -0.088950 -0.719983 -3.062742
v -0.077504 -0.677623 -3.057250
v -0.046235 -0.646613 -3.053229
v -0.003520 -0.626323 -3.364771
v 0.023505 -0.633504 -3.365702
v 0.043288 -0.653124 -3.368246
v 0.050529 -0.679924 -3.371721
v 0.043288 -0.706724 -3.375195
v 0.023505 -0.726343 -3.377739
v -0.003520 -0.733524 -3.378670
v -0.030544 -0.726343 -3.377739
v -0.050328 -0.706724 -3.375195
v -0.057569 -0.679924 -3.371721
v -0.050328 -0.653124 -3.368246
v -0.030544 -0.633504 -3.365702
v -0.003520 -0.595203 -3.360736
v 0.039195 -0.606553 -3.362208
v 0.070465 -0.637563 -3.366229
v 0.081910 -0.679924 -3.371721
v 0.070465 -0.722284 -3.377213
v 0.039195 -0.753294 -3.381233
v -0.003520 -0.764645 -3.382705
v -0.046235 -0.753294 -3.381233
v -0.077504 -0.722284 -3.377213
v -0.088950 -0.679924 -3.371721
v -0.077504 -0.637563 -3.366229
v -0.046235 -0.606553 -3.362208
v -0.004180 -0.659565 -3.083801
v 0.022844 -0.666746 -3.084731
v 0.042628 -0.686365 -3.087275
v 0.049869 -0.713165 -3.090750
v 0.042628 -0.739966 -3.094224
v 0.022844 -0.759585 -3.096768
v -0.004180 -0.766766 -3.097699
v -0.031205 -0.759585 -3.096768
v -0.050988 -0.739966 -3.094224
v -0.058229 -0.713165 -3.090750
v -0.050988 -0.686365 -3.087275
v -0.031205 -0.666746 -3.084731
v 0.026644 -0.628112 -3.365003
v -0.003520 -0.620097 -3.363964
v 0.048726 -0.650010 -3.367842
v 0.056808 -0.679924 -3.371721
v 0.048726 -0.709837 -3.375599
v 0.026644 -0.731736 -3.378438
v -0.003520 -0.739751 -3.379477
v -0.033684 -0.731736 -3.378438
v -0.055765 -0.709837 -3.375599
v -0.063848 -0.679924 -3.371721
v -0.055765 -0.650010 -3.367842
v -0.033684 -0.628112 -3.365003
v -0.003520 -0.601254 -3.361521
v 0.036144 -0.611794 -3.362887
v 0.065181 -0.640589 -3.366621
v 0.075809 -0.679924 -3.371721
v 0.065181 -0.719259 -3.376820
v 0.036144 -0.748054 -3.380554
v -0.003520 -0.758594 -3.381920
v -0.043184 -0.748054 -3.380554
v -0.072220 -0.719259 -3.376820
v -0.082848 -0.679924 -3.371721
v -0.072220 -0.640589 -3.366621
v -0.043184 -0.611794 -3.362887
vn -0.0000 0.7315 -0.6819
vn -0.0000 0.6669 0.7452
vn 0.3189 0.6467 -0.6929
vn 0.3786 0.5663 0.7321
vn 0.5523 0.4153 -0.7229
vn 0.6557 0.2915 0.6965
vn 0.6377 0.0990 -0.7639
vn 0.7572 -0.0840 0.6478
vn 0.5523 -0.2172 -0.8049
vn 0.6557 -0.4594 0.5991
vn 0.3189 -0.4487 -0.8349
vn 0.3786 -0.7343 0.5635
vn -0.0000 -0.5334 -0.8459
vn -0.0000 -0.8349 0.5505
vn -0.3189 -0.4487 -0.8349
vn -0.3786 -0.7343 0.5635
vn -0.5523 -0.2172 -0.8049
vn -0.6557 -0.4594 0.5991
vn -0.6377 0.0990 -0.7639
vn -0.7572 -0.0840 0.6478
vn -0.5523 0.4153 -0.7229
vn -0.6557 0.2915 0.6965
vn -0.3189 0.6467 -0.6929
vn -0.3786 0.5663 0.7321
vn -0.0000 0.8349 -0.5504
vn 0.3786 0.7343 -0.5635
vn 0.6557 0.4594 -0.5991
vn 0.7572 0.0840 -0.6478
vn 0.6557 -0.2915 -0.6965
vn 0.3786 -0.5663 -0.7321
vn -0.0000 -0.6669 -0.7452
vn -0.3786 -0.5663 -0.7321
vn -0.6557 -0.2915 -0.6965
vn -0.7572 0.0840 -0.6478
vn -0.6557 0.4594 -0.5991
vn -0.3786 0.7343 -0.5635
vn -0.0000 0.5334 0.8459
vn 0.3189 0.4487 0.8349
vn 0.5523 0.2172 0.8049
vn 0.6377 -0.0990 0.7639
vn 0.5523 -0.4153 0.7229
vn 0.3189 -0.6467 0.6929
vn -0.0000 -0.7315 0.6819
vn -0.3189 -0.6467 0.6929
vn -0.5523 -0.4153 0.7229
vn -0.6377 -0.0990 0.7639
vn -0.5523 0.2172 0.8049
vn -0.3189 0.4487 0.8349
vn -0.0000 0.6669 0.7451
vn -0.0000 -0.8349 0.5504
vn -0.0002 -0.5380 -0.8430
vn -0.3211 -0.4513 -0.8326
vn -0.5540 -0.2170 -0.8037
vn -0.6368 0.1003 -0.7644
vn -0.5494 0.4149 -0.7253
vn -0.3165 0.6439 -0.6966
vn -0.0002 0.7277 -0.6858
vn 0.3166 0.6447 -0.6958
vn 0.5506 0.4157 -0.7239
vn 0.6386 0.1001 -0.7630
vn 0.5552 -0.2181 -0.8026
vn 0.3212 -0.4524 -0.8320
vn -0.0000 0.8349 -0.5505
vn 0.0003 -0.6710 -0.7415
vn -0.3791 -0.5695 -0.7293
vn -0.6560 -0.2934 -0.6954
vn -0.7564 0.0827 -0.6488
vn -0.6541 0.4577 -0.6022
vn -0.3772 0.7316 -0.5679
vn 0.0003 0.8318 -0.5550
vn 0.3780 0.7319 -0.5670
vn 0.6554 0.4579 -0.6007
vn 0.7579 0.0825 -0.6471
vn 0.6573 -0.2939 -0.6939
vn 0.3799 -0.5700 -0.7285
vn -0.0000 0.1286 -0.9917
vt 0.880843 0.860795
vt 0.871303 0.969098
vt 0.861534 0.968214
vt 0.871480 0.858313
vt 0.984839 0.860388
vt 0.988459 0.972465
vt 0.977700 0.972743
vt 0.974554 0.862644
vt 0.966958 0.972921
vt 0.964739 0.863603
vt 0.956249 0.972968
vt 0.955259 0.864106
vt 0.945569 0.972904
vt 0.946149 0.864334
vt 0.934916 0.972720
vt 0.936779 0.864644
vt 0.924280 0.972428
vt 0.927194 0.864528
vt 0.913656 0.972008
vt 0.917930 0.864181
vt 0.903044 0.971457
vt 0.908960 0.863676
vt 0.892453 0.970788
vt 0.899664 0.863215
vt 0.823150 0.804583
vt 0.823150 0.803748
vt 0.823568 0.803024
vt 0.824292 0.802607
vt 0.825127 0.802607
vt 0.825851 0.803024
vt 0.826268 0.803748
vt 0.826268 0.804583
vt 0.825851 0.805307
vt 0.825127 0.805725
vt 0.824292 0.805725
vt 0.823568 0.805307
vt 0.881869 0.969994
vt 0.890107 0.862212
vt 0.973918 0.858315
vt 0.964508 0.859417
vt 0.959033 0.813058
vt 0.967077 0.812161
vt 0.873426 0.854984
vt 0.881684 0.857042
vt 0.982719 0.856234
vt 0.955171 0.860040
vt 0.946098 0.860631
vt 0.936772 0.860131
vt 0.927365 0.860386
vt 0.918191 0.860193
vt 0.909213 0.860025
vt 0.900054 0.858764
vt 0.890698 0.858118
vt 0.973923 0.806460
vt 0.966424 0.808113
vt 0.965511 0.603820
vt 0.972246 0.604484
vt 0.904509 0.813550
vt 0.912565 0.813910
vt 0.927735 0.814289
vt 0.935804 0.814312
vt 0.951218 0.813675
vt 0.896484 0.812879
vt 0.880781 0.810200
vt 0.888882 0.811884
vt 0.920148 0.814128
vt 0.943644 0.813922
vt 0.975769 0.810262
vt 0.882520 0.806705
vt 0.889542 0.808403
vt 0.958748 0.809156
vt 0.951085 0.809861
vt 0.943562 0.810416
vt 0.935748 0.810031
vt 0.927809 0.810407
vt 0.920235 0.810672
vt 0.912690 0.810029
vt 0.904798 0.809224
vt 0.896940 0.809005
vt 0.943324 0.604474
vt 0.935628 0.605020
vt 0.935600 0.599158
vt 0.943356 0.599105
vt 0.913014 0.603888
vt 0.920430 0.604212
vt 0.958259 0.603872
vt 0.905720 0.603422
vt 0.927937 0.604540
vt 0.950843 0.604118
vt 0.898258 0.604016
vt 0.884008 0.604614
vt 0.890791 0.603623
vt 0.974081 0.600066
vt 0.966126 0.599002
vt 0.962457 0.548600
vt 0.970359 0.544027
vt 0.958462 0.598822
vt 0.905724 0.598747
vt 0.912967 0.598870
vt 0.927862 0.599174
vt 0.950929 0.598918
vt 0.898220 0.598514
vt 0.882104 0.599566
vt 0.890384 0.598721
vt 0.920358 0.599044
vt 0.828190 0.791079
vt 0.828197 0.792185
vt 0.817017 0.792185
vt 0.817010 0.791079
vt 0.914787 0.552556
vt 0.921426 0.552988
vt 0.934584 0.553032
vt 0.941456 0.552728
vt 0.955332 0.550748
vt 0.908192 0.551898
vt 0.928038 0.553083
vt 0.948431 0.551956
vt 0.901281 0.550735
vt 0.886553 0.543890
vt 0.894251 0.548427
vt 0.887572 0.542921
vt 0.894711 0.547450
vt 0.961989 0.547550
vt 0.969333 0.543027
vt 0.955100 0.549796
vt 0.948287 0.550961
vt 0.941372 0.551681
vt 0.934557 0.552065
vt 0.928042 0.552183
vt 0.921467 0.551985
vt 0.914860 0.551652
vt 0.908322 0.550930
vt 0.901541 0.549691
vt 0.817457 0.804516
vt 0.817457 0.803642
vt 0.817894 0.802886
vt 0.818651 0.802449
vt 0.819525 0.802449
vt 0.820282 0.802886
vt 0.820718 0.803642
vt 0.820718 0.804516
vt 0.820282 0.805273
vt 0.819525 0.805710
vt 0.818651 0.805710
vt 0.817894 0.805273
vt 0.828151 0.798818
vt 0.828150 0.799923
vt 0.816970 0.799923
vt 0.816971 0.798818
vt 0.828156 0.787763
vt 0.828167 0.788868
vt 0.816987 0.788868
vt 0.816976 0.787763
vt 0.828182 0.795501
vt 0.828169 0.796607
vt 0.816989 0.796607
vt 0.817002 0.795501
vt 0.828198 0.793290
vt 0.817018 0.793290
vt 0.828179 0.789974
vt 0.816999 0.789974
vt 0.828158 0.797712
vt 0.816978 0.797712
vt 0.828192 0.794396
vt 0.817012 0.794396
vt 0.828156 0.801029
vt 0.816976 0.801029
vt 0.897024 0.543025
vt 0.902895 0.545047
vt 0.902543 0.546322
vt 0.896388 0.544203
vt 0.909136 0.546170
vt 0.908941 0.547502
vt 0.915378 0.546908
vt 0.915281 0.548192
vt 0.921709 0.547110
vt 0.921625 0.548425
vt 0.928089 0.547478
vt 0.928062 0.548822
vt 0.934495 0.547149
vt 0.934569 0.548530
vt 0.941066 0.546731
vt 0.941211 0.548091
vt 0.947570 0.545996
vt 0.947769 0.547319
vt 0.953828 0.545084
vt 0.954138 0.546348
vt 0.959705 0.543038
vt 0.960334 0.544248
vt 0.964832 0.539155
vt 0.965968 0.540045
vt 0.892030 0.539155
vt 0.890904 0.540017
s 1
f 366/565/223 343/566/200 345/567/202 367/568/224
f 367/569/224 345/570/202 347/571/204 368/572/225
f 368/572/225 347/571/204 349/573/206 369/574/226
f 369/574/226 349/573/206 351/575/208 370/576/227
f 370/576/227 351/575/208 353/577/210 371/578/228
f 371/578/228 353/577/210 355/579/212 372/580/229
f 372/580/229 355/579/212 357/581/214 373/582/230
f 373/582/230 357/581/214 359/583/216 374/584/231
f 374/584/231 359/583/216 361/585/218 375/586/232
f 375/586/232 361/585/218 363/587/220 376/588/233
f 345/589/202 343/590/200 365/591/222 363/592/220 361/593/218 359/594/216 357/595/214 355/596/212 353/597/210 351/598/208 349/599/206 347/600/204
f 376/588/233 363/587/220 365/601/222 377/602/234
f 377/602/234 365/601/222 343/566/200 366/565/223
f 346/603/203 348/604/205 393/605/226 392/606/225
f 344/607/201 342/608/199 366/565/223 367/568/224
f 346/603/203 344/609/201 367/569/224 368/572/225
f 348/604/205 346/603/203 368/572/225 369/574/226
f 350/610/207 348/604/205 369/574/226 370/576/227
f 352/611/209 350/610/207 370/576/227 371/578/228
f 354/612/211 352/611/209 371/578/228 372/580/229
f 356/613/213 354/612/211 372/580/229 373/582/230
f 358/614/215 356/613/213 373/582/230 374/584/231
f 360/615/217 358/614/215 374/584/231 375/586/232
f 362/616/219 360/615/217 375/586/232 376/588/233
f 364/617/221 362/616/219 376/588/233 377/602/234
f 342/608/199 364/617/221 377/602/234 366/565/223
f 379/618/201 380/619/203 404/620/237 403/621/236
f 360/615/217 362/616/219 400/622/233 399/623/232
f 354/612/211 356/613/213 397/624/230 396/625/229
f 348/604/205 350/610/207 394/626/227 393/605/226
f 362/616/219 364/617/221 401/627/234 400/622/233
f 342/608/199 344/607/201 391/628/224 390/629/223
f 356/613/213 358/614/215 398/630/231 397/624/230
f 350/610/207 352/611/209 395/631/228 394/626/227
f 364/617/221 342/608/199 390/629/223 401/627/234
f 344/609/201 346/603/203 392/606/225 391/632/224
f 358/614/215 360/615/217 399/623/232 398/630/231
f 352/611/209 354/612/211 396/625/229 395/631/228
f 379/633/201 378/634/199 390/629/223 391/628/224
f 380/619/203 379/618/201 391/632/224 392/606/225
f 381/635/205 380/619/203 392/606/225 393/605/226
f 382/636/207 381/635/205 393/605/226 394/626/227
f 383/637/209 382/636/207 394/626/227 395/631/228
f 384/638/211 383/637/209 395/631/228 396/625/229
f 385/639/213 384/638/211 396/625/229 397/624/230
f 386/640/215 385/639/213 397/624/230 398/630/231
f 387/641/217 386/640/215 398/630/231 399/623/232
f 388/642/219 387/641/217 399/623/232 400/622/233
f 389/643/221 388/642/219 400/622/233 401/627/234
f 378/634/199 389/643/221 401/627/234 390/629/223
f 407/644/240 408/645/241 420/646/248 419/647/210
f 386/640/215 387/641/217 411/648/244 410/649/243
f 383/637/209 384/638/211 408/645/241 407/644/240
f 380/619/203 381/635/205 405/650/238 404/620/237
f 387/641/217 388/642/219 412/651/245 411/648/244
f 384/638/211 385/639/213 409/652/242 408/645/241
f 381/635/205 382/636/207 406/653/239 405/650/238
f 388/642/219 389/643/221 413/654/246 412/651/245
f 378/634/199 379/633/201 403/655/236 402/656/235
f 385/639/213 386/640/215 410/649/243 409/652/242
f 382/636/207 383/637/209 407/644/240 406/653/239
f 389/643/221 378/634/199 402/656/235 413/654/246
f 415/657/202 416/658/204 440/659/225 439/660/224
f 404/620/237 405/650/238 417/661/206 416/658/204
f 411/648/244 412/651/245 424/662/220 423/663/218
f 408/645/241 409/652/242 421/664/214 420/646/248
f 405/650/238 406/653/239 418/665/208 417/661/206
f 412/651/245 413/654/246 425/666/222 424/662/220
f 402/656/235 403/655/236 415/667/202 414/668/247
f 409/652/242 410/649/243 422/669/216 421/664/214
f 406/653/239 407/644/240 419/647/210 418/665/208
f 413/654/246 402/656/235 414/668/247 425/666/222
f 403/621/236 404/620/237 416/658/204 415/657/202
f 410/649/243 411/648/244 423/663/218 422/669/216
f 430/670/253 431/671/254 455/672/267 454/673/266
f 422/669/216 423/663/218 447/674/232 446/675/231
f 419/647/210 420/646/248 444/676/229 443/677/228
f 416/658/204 417/661/206 441/678/226 440/659/225
f 423/663/218 424/662/220 448/679/233 447/674/232
f 420/646/248 421/664/214 445/680/230 444/676/229
f 417/661/206 418/665/208 442/681/227 441/678/226
f 424/662/220 425/666/222 449/682/234 448/679/233
f 414/668/247 415/667/202 439/683/224 438/684/261
f 421/664/214 422/669/216 446/675/231 445/680/230
f 418/665/208 419/647/210 443/677/228 442/681/227
f 425/666/222 414/668/247 438/684/261 449/682/234
f 475/685/274 474/686/274 438/684/261 439/683/224
f 476/687/274 475/688/274 439/660/224 440/659/225
f 477/689/274 476/687/274 440/659/225 441/678/226
f 478/690/274 477/689/274 441/678/226 442/681/227
f 479/691/274 478/690/274 442/681/227 443/677/228
f 480/692/274 479/691/274 443/677/228 444/676/229
f 481/693/274 480/692/274 444/676/229 445/680/230
f 482/694/274 481/693/274 445/680/230 446/675/231
f 483/695/274 482/694/274 446/675/231 447/674/232
f 484/696/274 483/695/274 447/674/232 448/679/233
f 485/697/274 484/696/274 448/679/233 449/682/234
f 474/686/274 485/697/274 449/682/234 438/684/261
f 450/698/262 451/699/263 452/700/264 453/701/265 454/702/266 455/703/267 456/704/268 457/705/269 458/706/270 459/707/271 460/708/272 461/709/273
f 437/710/260 426/711/249 450/712/262 461/713/273
f 427/714/250 428/715/251 452/716/264 451/717/263
f 434/718/257 435/719/258 459/720/271 458/721/270
f 431/671/254 432/722/255 456/723/268 455/672/267
f 428/715/251 429/724/252 453/725/265 452/716/264
f 435/719/258 436/726/259 460/727/272 459/720/271
f 432/722/255 433/728/256 457/729/269 456/723/268
f 429/724/252 430/670/253 454/673/266 453/725/265
f 436/726/259 437/710/260 461/713/273 460/727/272
f 426/711/249 427/730/250 451/731/263 450/712/262
f 433/728/256 434/718/257 458/721/270 457/729/269
f 426/732/249 437/733/260 473/734/274 463/735/274
f 437/733/260 436/736/259 472/737/274 473/734/274
f 436/736/259 435/738/258 471/739/274 472/737/274
f 435/738/258 434/740/257 470/741/274 471/739/274
f 434/740/257 433/742/256 469/743/274 470/741/274
f 433/742/256 432/744/255 468/745/274 469/743/274
f 432/744/255 431/746/254 467/747/274 468/745/274
f 431/746/254 430/748/253 466/749/274 467/747/274
f 430/748/253 429/750/252 465/751/274 466/749/274
f 429/750/252 428/752/251 464/753/274 465/751/274
f 428/752/251 427/754/250 462/755/274 464/753/274
f 427/756/250 426/732/249 463/735/274 462/757/274
f 463/735/274 473/734/274 485/697/274 474/686/274
f 473/734/274 472/737/274 484/696/274 485/697/274
f 472/737/274 471/739/274 483/695/274 484/696/274
f 471/739/274 470/741/274 482/694/274 483/695/274
f 470/741/274 469/743/274 481/693/274 482/694/274
f 469/743/274 468/745/274 480/692/274 481/693/274
f 468/745/274 467/747/274 479/691/274 480/692/274
f 467/747/274 466/749/274 478/690/274 479/691/274
f 466/749/274 465/751/274 477/689/274 478/690/274
f 465/751/274 464/753/274 476/687/274 477/689/274
f 464/753/274 462/755/274 475/688/274 476/687/274
f 462/757/274 463/735/274 474/686/274 475/685/274
o sensors
v -0.133430 0.435378 -3.650055
v -0.133430 0.456628 -1.734720
v -0.112003 0.429637 -3.650055
v -0.101378 0.448039 -1.734720
v -0.096317 0.413951 -3.650055
v -0.077915 0.424576 -1.734720
v -0.090576 0.392524 -3.650055
v -0.069326 0.392524 -1.734720
v -0.096317 0.371096 -3.650055
v -0.077915 0.360471 -1.734720
v -0.112003 0.355410 -3.650055
v -0.101378 0.337008 -1.734720
v -0.133430 0.349669 -3.650055
v -0.133430 0.328419 -1.734720
v -0.154858 0.355410 -3.650055
v -0.165483 0.337008 -1.734720
v -0.170544 0.371096 -3.650055
v -0.188946 0.360471 -1.734720
v -0.176285 0.392524 -3.650055
v -0.197535 0.392524 -1.734720
v -0.170544 0.413951 -3.650055
v -0.188946 0.424576 -1.734720
v -0.154858 0.429637 -3.650055
v -0.165483 0.448039 -1.734720
v -0.133430 0.456628 -3.650055
v -0.101378 0.448039 -3.650055
v -0.077915 0.424576 -3.650055
v -0.069326 0.392524 -3.650055
v -0.077915 0.360472 -3.650055
v -0.101378 0.337008 -3.650055
v -0.133430 0.328420 -3.650055
v -0.165483 0.337008 -3.650055
v -0.188946 0.360472 -3.650055
v -0.197535 0.392524 -3.650055
v -0.188946 0.424576 -3.650055
v -0.165483 0.448039 -3.650055
v -0.024368 0.363369 -3.960665
v -0.024368 0.379085 -1.743366
v -0.008520 0.359122 -3.960665
v -0.000662 0.372733 -1.743366
v 0.003081 0.347520 -3.960665
v 0.016692 0.355379 -1.743366
v 0.007328 0.331672 -3.960665
v 0.023044 0.331672 -1.743366
v 0.003081 0.315824 -3.960665
v 0.016692 0.307966 -1.743366
v -0.008520 0.304222 -3.960665
v -0.000662 0.290611 -1.743366
v -0.024368 0.299976 -3.960665
v -0.024368 0.284259 -1.743366
v -0.040217 0.304222 -3.960665
v -0.048075 0.290611 -1.743366
v -0.051818 0.315824 -3.960665
v -0.065429 0.307966 -1.743366
v -0.056065 0.331672 -3.960665
v -0.071781 0.331672 -1.743366
v -0.051818 0.347520 -3.960665
v -0.065429 0.355379 -1.743366
v -0.040217 0.359122 -3.960665
v -0.048075 0.372733 -1.743366
v -0.024368 0.379085 -3.960665
v -0.000662 0.372733 -3.960665
v 0.016692 0.355379 -3.960665
v 0.023044 0.331672 -3.960665
v 0.016692 0.307966 -3.960665
v -0.000662 0.290611 -3.960665
v -0.024368 0.284259 -3.960665
v -0.048075 0.290611 -3.960665
v -0.065429 0.307966 -3.960665
v -0.071781 0.331672 -3.960665
v -0.065429 0.355379 -3.960665
v -0.048075 0.372733 -3.960665
v -0.090895 0.256864 -3.196950
v -0.090895 0.269432 -1.740105
v -0.078222 0.253469 -3.196950
v -0.071938 0.264353 -1.740105
v -0.068945 0.244192 -3.196950
v -0.058061 0.250475 -1.740105
v -0.065549 0.231519 -3.196950
v -0.052981 0.231519 -1.740105
v -0.068945 0.218846 -3.196950
v -0.058061 0.212562 -1.740105
v -0.078222 0.209569 -3.196950
v -0.071938 0.198685 -1.740105
v -0.090895 0.206173 -3.196950
v -0.090895 0.193605 -1.740105
v -0.103567 0.209569 -3.196950
v -0.109851 0.198685 -1.740105
v -0.112845 0.218846 -3.196950
v -0.123728 0.212562 -1.740105
v -0.116240 0.231519 -3.196950
v -0.128808 0.231519 -1.740105
v -0.112845 0.244192 -3.196950
v -0.123728 0.250475 -1.740105
v -0.103567 0.253469 -3.196950
v -0.109851 0.264353 -1.740105
v -0.090895 0.269432 -3.196950
v -0.071938 0.264353 -3.196950
v -0.058061 0.250475 -3.196950
v -0.052981 0.231519 -3.196950
v -0.058061 0.212562 -3.196950
v -0.071938 0.198685 -3.196950
v -0.090895 0.193605 -3.196950
v -0.109851 0.198685 -3.196950
v -0.123728 0.212562 -3.196950
v -0.128808 0.231519 -3.196950
v -0.123728 0.250475 -3.196950
v -0.109851 0.264353 -3.196950
vn -0.0000 1.0000 -0.0092
vn -0.0000 0.9950 0.0999
vn 0.4975 0.8617 0.0999
vn 0.4999 0.8660 -0.0092
vn 0.8617 0.4975 0.0999
vn 0.8660 0.5000 -0.0092
vn 0.9950 -0.0000 0.0999
vn 1.0000 -0.0000 -0.0092
vn 0.8617 -0.4975 0.0999
vn 0.8660 -0.4999 -0.0092
vn 0.4975 -0.8617 0.0999
vn 0.5000 -0.8660 -0.0092
vn -0.0000 -0.9950 0.0999
vn -0.0000 -1.0000 -0.0092
vn -0.4975 -0.8617 0.0999
vn -0.4999 -0.8660 -0.0092
vn -0.8617 -0.4975 0.0999
vn -0.8660 -0.5000 -0.0092
vn -0.9950 -0.0000 0.0999
vn -1.0000 -0.0000 -0.0092
vn -0.8617 0.4975 0.0999
vn -0.8660 0.4999 -0.0092
vn -0.4975 0.8617 0.0999
vn -0.5000 0.8660 -0.0092
vn -0.0000 -0.0000 -1.0000
vn -0.0000 1.0000 -0.0059
vn -0.0000 0.9979 0.0640
vn 0.4990 0.8642 0.0640
vn 0.5000 0.8660 -0.0059
vn 0.8642 0.4990 0.0640
vn 0.8660 0.5000 -0.0059
vn 0.9979 -0.0000 0.0640
vn 1.0000 -0.0000 -0.0059
vn 0.8642 -0.4990 0.0640
vn 0.8660 -0.5000 -0.0059
vn 0.4990 -0.8642 0.0640
vn 0.5000 -0.8660 -0.0059
vn -0.0000 -0.9979 0.0640
vn -0.0000 -1.0000 -0.0059
vn -0.4990 -0.8642 0.0640
vn -0.5000 -0.8660 -0.0059
vn -0.8642 -0.4990 0.0640
vn -0.8660 -0.5000 -0.0059
vn -0.9979 -0.0000 0.0640
vn -1.0000 -0.0000 -0.0059
vn -0.8642 0.4990 0.0640
vn -0.8660 0.5000 -0.0059
vn -0.4990 0.8642 0.0640
vn -0.5000 0.8660 -0.0059
vn -0.0000 1.0000 -0.0072
vn -0.0000 0.9970 0.0778
vn 0.4985 0.8634 0.0778
vn 0.4999 0.8660 -0.0072
vn 0.8634 0.4985 0.0778
vn 0.8660 0.5000 -0.0072
vn 0.9970 -0.0000 0.0778
vn 1.0000 -0.0000 -0.0072
vn 0.8634 -0.4985 0.0778
vn 0.8660 -0.4999 -0.0072
vn 0.4985 -0.8634 0.0778
vn 0.5000 -0.8660 -0.0072
vn -0.0000 -0.9970 0.0778
vn -0.0000 -1.0000 -0.0072
vn -0.4985 -0.8634 0.0778
vn -0.4999 -0.8660 -0.0072
vn -0.8634 -0.4985 0.0778
vn -0.8660 -0.5000 -0.0072
vn -0.9970 -0.0000 0.0778
vn -1.0000 -0.0000 -0.0072
vn -0.8634 0.4985 0.0778
vn -0.8660 0.4999 -0.0072
vn -0.4985 0.8634 0.0778
vn -0.5000 0.8660 -0.0072
vt 0.871826 0.219335
vt 0.865912 0.341365
vt 0.854972 0.340808
vt 0.862530 0.217839
vt 0.844810 0.340222
vt 0.852071 0.214169
vt 0.966984 0.213870
vt 0.975431 0.340138
vt 0.964446 0.340810
vt 0.956867 0.217354
vt 0.953492 0.341370
vt 0.947489 0.219231
vt 0.942552 0.341812
vt 0.938323 0.220090
vt 0.931618 0.342135
vt 0.929368 0.220570
vt 0.920679 0.342334
vt 0.920037 0.220645
vt 0.909729 0.342402
vt 0.910361 0.220487
vt 0.898762 0.342364
vt 0.900318 0.220279
vt 0.887796 0.342152
vt 0.890342 0.220194
vt 0.719704 0.952746
vt 0.719991 0.952746
vt 0.720239 0.952889
vt 0.720383 0.953138
vt 0.720383 0.953425
vt 0.720239 0.953674
vt 0.719991 0.953817
vt 0.719704 0.953817
vt 0.719455 0.953674
vt 0.719311 0.953425
vt 0.719311 0.953138
vt 0.719455 0.952889
vt 0.876846 0.341815
vt 0.880862 0.220016
vt 0.078086 0.847378
vt 0.083624 0.837785
vt 0.093217 0.832247
vt 0.104294 0.832247
vt 0.113887 0.837785
vt 0.119425 0.847378
vt 0.119425 0.858455
vt 0.113887 0.868047
vt 0.104294 0.873586
vt 0.093217 0.873586
vt 0.083624 0.868047
vt 0.078086 0.858455
vt 0.864658 0.210886
vt 0.872631 0.212794
vt 0.856982 0.207328
vt 0.954902 0.210721
vt 0.962266 0.207328
vt 0.946291 0.211706
vt 0.937733 0.213401
vt 0.929108 0.213283
vt 0.920012 0.212913
vt 0.910514 0.212261
vt 0.900408 0.211236
vt 0.890349 0.212176
vt 0.881139 0.212724
vt 0.402805 0.508947
vt 0.400200 0.651090
vt 0.392111 0.650939
vt 0.395795 0.508012
vt 0.384630 0.650768
vt 0.387943 0.505514
vt 0.474319 0.505098
vt 0.480356 0.649851
vt 0.472901 0.650162
vt 0.466840 0.507531
vt 0.464833 0.650471
vt 0.460054 0.508676
vt 0.456763 0.650735
vt 0.453182 0.509156
vt 0.448691 0.650947
vt 0.446162 0.509344
vt 0.440615 0.651106
vt 0.438944 0.509370
vt 0.432534 0.651207
vt 0.431487 0.509374
vt 0.424450 0.651263
vt 0.424170 0.509339
vt 0.416366 0.651256
vt 0.416915 0.509408
vt 0.714888 0.950044
vt 0.715214 0.949479
vt 0.715780 0.949152
vt 0.716433 0.949152
vt 0.716998 0.949479
vt 0.717325 0.950044
vt 0.717325 0.950697
vt 0.716998 0.951263
vt 0.716433 0.951589
vt 0.715780 0.951589
vt 0.715214 0.951263
vt 0.714888 0.950697
vt 0.408282 0.651196
vt 0.409666 0.509318
vt 0.194029 0.306228
vt 0.211534 0.306228
vt 0.226693 0.314980
vt 0.235446 0.330140
vt 0.235446 0.347645
vt 0.226693 0.362804
vt 0.211534 0.371557
vt 0.194029 0.371557
vt 0.178869 0.362804
vt 0.170117 0.347645
vt 0.170117 0.330140
vt 0.178869 0.314980
vt 0.397228 0.502759
vt 0.403259 0.503981
vt 0.391426 0.500297
vt 0.465463 0.502764
vt 0.470865 0.500297
vt 0.459375 0.503492
vt 0.452839 0.503653
vt 0.445998 0.503561
vt 0.438895 0.503278
vt 0.431418 0.502780
vt 0.424103 0.503688
vt 0.416920 0.503050
vt 0.409749 0.503697
vt 0.664558 0.622837
vt 0.660450 0.715796
vt 0.654004 0.715495
vt 0.658987 0.621882
vt 0.648033 0.715187
vt 0.652946 0.619938
vt 0.721454 0.620050
vt 0.725092 0.715973
vt 0.718590 0.716190
vt 0.715343 0.621934
vt 0.712104 0.716359
vt 0.709633 0.622897
vt 0.705626 0.716477
vt 0.703948 0.623284
vt 0.699155 0.716540
vt 0.698229 0.623568
vt 0.692690 0.716546
vt 0.692400 0.623758
vt 0.686234 0.716499
vt 0.686804 0.623892
vt 0.679786 0.716401
vt 0.681469 0.623853
vt 0.673343 0.716254
vt 0.676083 0.623694
vt 0.723344 0.954956
vt 0.723982 0.954956
vt 0.724535 0.955275
vt 0.724854 0.955827
vt 0.724854 0.956465
vt 0.724535 0.957018
vt 0.723982 0.957337
vt 0.723344 0.957337
vt 0.722792 0.957018
vt 0.722473 0.956465
vt 0.722473 0.955827
vt 0.722792 0.955275
vt 0.666898 0.716052
vt 0.670332 0.623363
vt 0.225784 0.957702
vt 0.211787 0.957702
vt 0.199665 0.950703
vt 0.192666 0.938581
vt 0.192666 0.924583
vt 0.199665 0.912461
vt 0.211787 0.905462
vt 0.225784 0.905462
vt 0.237907 0.912461
vt 0.244906 0.924583
vt 0.244906 0.938581
vt 0.237907 0.950703
vt 0.660056 0.617964
vt 0.665070 0.618443
vt 0.655674 0.616036
vt 0.714315 0.617891
vt 0.718791 0.616036
vt 0.709082 0.618255
vt 0.703776 0.618980
vt 0.698088 0.618479
vt 0.692281 0.619047
vt 0.686773 0.619485
vt 0.681572 0.619839
vt 0.676348 0.619187
vt 0.670706 0.618367
s 1
f 510/758/275 487/759/276 489/760/277 511/761/278
f 511/761/278 489/760/277 491/762/279 512/763/280
f 512/764/280 491/765/279 493/766/281 513/767/282
f 513/767/282 493/766/281 495/768/283 514/769/284
f 514/769/284 495/768/283 497/770/285 515/771/286
f 515/771/286 497/770/285 499/772/287 516/773/288
f 516/773/288 499/772/287 501/774/289 517/775/290
f 517/775/290 501/774/289 503/776/291 518/777/292
f 518/777/292 503/776/291 505/778/293 519/779/294
f 519/779/294 505/778/293 507/780/295 520/781/296
f 489/782/277 487/783/276 509/784/297 507/785/295 505/786/293 503/787/291 501/788/289 499/789/287 497/790/285 495/791/283 493/792/281 491/793/279
f 520/781/296 507/780/295 509/794/297 521/795/298
f 521/795/298 509/794/297 487/759/276 510/758/275
f 486/796/299 488/797/299 490/798/299 492/799/299 494/800/299 496/801/299 498/802/299 500/803/299 502/804/299 504/805/299 506/806/299 508/807/299
f 488/808/299 486/809/299 510/758/275 511/761/278
f 490/810/299 488/808/299 511/761/278 512/763/280
f 492/811/299 490/812/299 512/764/280 513/767/282
f 494/813/299 492/811/299 513/767/282 514/769/284
f 496/814/299 494/813/299 514/769/284 515/771/286
f 498/815/299 496/814/299 515/771/286 516/773/288
f 500/816/299 498/815/299 516/773/288 517/775/290
f 502/817/299 500/816/299 517/775/290 518/777/292
f 504/818/299 502/817/299 518/777/292 519/779/294
f 506/819/299 504/818/299 519/779/294 520/781/296
f 508/820/299 506/819/299 520/781/296 521/795/298
f 486/809/299 508/820/299 521/795/298 510/758/275
f 546/821/300 523/822/301 525/823/302 547/824/303
f 547/824/303 525/823/302 527/825/304 548/826/305
f 548/827/305 527/828/304 529/829/306 549/830/307
f 549/830/307 529/829/306 531/831/308 550/832/309
f 550/832/309 531/831/308 533/833/310 551/834/311
f 551/834/311 533/833/310 535/835/312 552/836/313
f 552/836/313 535/835/312 537/837/314 553/838/315
f 553/838/315 537/837/314 539/839/316 554/840/317
f 554/840/317 539/839/316 541/841/318 555/842/319
f 555/842/319 541/841/318 543/843/320 556/844/321
f 525/845/302 523/846/301 545/847/322 543/848/320 541/849/318 539/850/316 537/851/314 535/852/312 533/853/310 531/854/308 529/855/306 527/856/304
f 556/844/321 543/843/320 545/857/322 557/858/323
f 557/858/323 545/857/322 523/822/301 546/821/300
f 522/859/299 524/860/299 526/861/299 528/862/299 530/863/299 532/864/299 534/865/299 536/866/299 538/867/299 540/868/299 542/869/299 544/870/299
f 524/871/299 522/872/299 546/821/300 547/824/303
f 526/873/299 524/871/299 547/824/303 548/826/305
f 528/874/299 526/875/299 548/827/305 549/830/307
f 530/876/299 528/874/299 549/830/307 550/832/309
f 532/877/299 530/876/299 550/832/309 551/834/311
f 534/878/299 532/877/299 551/834/311 552/836/313
f 536/879/299 534/878/299 552/836/313 553/838/315
f 538/880/299 536/879/299 553/838/315 554/840/317
f 540/881/299 538/880/299 554/840/317 555/842/319
f 542/882/299 540/881/299 555/842/319 556/844/321
f 544/883/299 542/882/299 556/844/321 557/858/323
f 522/872/299 544/883/299 557/858/323 546/821/300
f 582/884/324 559/885/325 561/886/326 583/887/327
f 583/887/327 561/886/326 563/888/328 584/889/329
f 584/890/329 563/891/328 565/892/330 585/893/331
f 585/893/331 565/892/330 567/894/332 586/895/333
f 586/895/333 567/894/332 569/896/334 587/897/335
f 587/897/335 569/896/334 571/898/336 588/899/337
f 588/899/337 571/898/336 573/900/338 589/901/339
f 589/901/339 573/900/338 575/902/340 590/903/341
f 590/903/341 575/902/340 577/904/342 591/905/343
f 591/905/343 577/904/342 579/906/344 592/907/345
f 561/908/326 559/909/325 581/910/346 579/911/344 577/912/342 575/913/340 573/914/338 571/915/336 569/916/334 567/917/332 565/918/330 563/919/328
f 592/907/345 579/906/344 581/920/346 593/921/347
f 593/921/347 581/920/346 559/885/325 582/884/324
f 558/922/299 560/923/299 562/924/299 564/925/299 566/926/299 568/927/299 570/928/299 572/929/299 574/930/299 576/931/299 578/932/299 580/933/299
f 560/934/299 558/935/299 582/884/324 583/887/327
f 562/936/299 560/934/299 583/887/327 584/889/329
f 564/937/299 562/938/299 584/890/329 585/893/331
f 566/939/299 564/937/299 585/893/331 586/895/333
f 568/940/299 566/939/299 586/895/333 587/897/335
f 570/941/299 568/940/299 587/897/335 588/899/337
f 572/942/299 570/941/299 588/899/337 589/901/339
f 574/943/299 572/942/299 589/901/339 590/903/341
f 576/944/299 574/943/299 590/903/341 591/905/343
f 578/945/299 576/944/299 591/905/343 592/907/345
f 580/946/299 578/945/299 592/907/345 593/921/347
f 558/935/299 580/946/299 593/921/347 582/884/324
o eye
v -0.001695 0.160973 -2.652968
v -0.001695 0.101661 -2.712280
v 0.105795 0.168402 -2.533532
v 0.103729 0.164825 -2.575472
v 0.097613 0.154230 -2.615801
v 0.087679 0.137025 -2.652968
v 0.074312 0.113872 -2.685545
v 0.058023 0.085659 -2.712280
v 0.039440 0.053472 -2.732146
v 0.019276 0.018546 -2.744380
v 0.184482 0.089714 -2.533532
v 0.180905 0.087649 -2.575472
v 0.170310 0.081532 -2.615801
v 0.153106 0.071599 -2.652968
v 0.129952 0.058231 -2.685545
v 0.101740 0.041943 -2.712280
v 0.069552 0.023359 -2.732146
v 0.034627 0.003195 -2.744380
v 0.213284 -0.017775 -2.533532
v 0.209153 -0.017775 -2.575472
v 0.196920 -0.017775 -2.615801
v 0.177053 -0.017775 -2.652968
v 0.150318 -0.017775 -2.685545
v 0.117741 -0.017775 -2.712280
v 0.080574 -0.017775 -2.732146
v 0.040246 -0.017775 -2.744380
v 0.184482 -0.125264 -2.533532
v 0.180905 -0.123199 -2.575472
v 0.170310 -0.117082 -2.615801
v 0.153106 -0.107149 -2.652968
v 0.129952 -0.093781 -2.685545
v 0.101740 -0.077493 -2.712280
v 0.069552 -0.058909 -2.732146
v 0.034627 -0.038745 -2.744380
v 0.105795 -0.203952 -2.533532
v 0.103729 -0.200374 -2.575472
v 0.097613 -0.189780 -2.615801
v 0.087679 -0.172575 -2.652968
v 0.074312 -0.149422 -2.685545
v 0.058023 -0.121209 -2.712280
v 0.039440 -0.089022 -2.732146
v 0.019276 -0.054096 -2.744380
v -0.001695 -0.232753 -2.533532
v -0.001695 -0.228623 -2.575472
v -0.001695 -0.216389 -2.615801
v -0.001695 -0.196523 -2.652968
v -0.001695 -0.169788 -2.685545
v -0.001695 -0.137211 -2.712280
v -0.001695 -0.100044 -2.732146
v -0.001695 -0.059715 -2.744380
v -0.109184 -0.203952 -2.533532
v -0.107118 -0.200374 -2.575472
v -0.101002 -0.189780 -2.615801
v -0.091069 -0.172575 -2.652968
v -0.077701 -0.149422 -2.685545
v -0.061412 -0.121209 -2.712280
v -0.042829 -0.089022 -2.732146
v -0.022665 -0.054096 -2.744380
v -0.187871 -0.125264 -2.533532
v -0.184294 -0.123199 -2.575472
v -0.173699 -0.117082 -2.615801
v -0.156495 -0.107149 -2.652968
v -0.133341 -0.093781 -2.685545
v -0.105129 -0.077493 -2.712280
v -0.072941 -0.058909 -2.732146
v -0.038016 -0.038745 -2.744380
v -0.001695 -0.017775 -2.748511
v -0.216673 -0.017775 -2.533532
v -0.212542 -0.017775 -2.575472
v -0.200309 -0.017775 -2.615801
v -0.180443 -0.017775 -2.652968
v -0.153707 -0.017775 -2.685545
v -0.121130 -0.017775 -2.712280
v -0.083963 -0.017775 -2.732146
v -0.043635 -0.017775 -2.744380
v -0.187871 0.089714 -2.533532
v -0.184294 0.087649 -2.575472
v -0.173699 0.081532 -2.615801
v -0.156495 0.071599 -2.652968
v -0.133341 0.058231 -2.685545
v -0.105129 0.041943 -2.712280
v -0.072941 0.023359 -2.732146
v -0.038016 0.003195 -2.744380
v -0.109184 0.168402 -2.533532
v -0.107118 0.164825 -2.575472
v -0.101002 0.154230 -2.615801
v -0.091069 0.137025 -2.652968
v -0.077701 0.113872 -2.685545
v -0.061412 0.085659 -2.712280
v -0.042829 0.053472 -2.732146
v -0.022665 0.018546 -2.744380
v -0.001695 0.197204 -2.533532
v -0.001695 0.193073 -2.575472
v -0.001695 0.180839 -2.615801
v -0.001695 0.134238 -2.685545
v -0.001695 0.064494 -2.732146
v -0.001695 0.024165 -2.744380
v 0.105795 0.168402 -1.365870
v 0.184482 0.089714 -1.365870
v 0.213284 -0.017775 -1.365870
v 0.184482 -0.125264 -1.365870
v 0.105795 -0.203952 -1.365870
v -0.001695 -0.232753 -1.365870
v -0.109184 -0.203952 -1.365870
v -0.187871 -0.125264 -1.365870
v -0.216673 -0.017775 -1.365870
v -0.187871 0.089714 -1.365870
v -0.109184 0.168402 -1.365870
v -0.001695 0.197204 -1.365870
vn -0.0000 0.8363 -0.5482
vn -0.0000 0.5666 -0.8240
vn 0.4994 0.8650 -0.0487
vn 0.4907 0.8499 -0.1921
vn 0.4631 0.8021 -0.3771
vn 0.4182 0.7243 -0.5482
vn 0.3575 0.6192 -0.6991
vn 0.2833 0.4907 -0.8240
vn 0.1982 0.3433 -0.9181
vn 0.1053 0.1825 -0.9776
vn 0.8650 0.4994 -0.0487
vn 0.8499 0.4907 -0.1921
vn 0.8021 0.4631 -0.3771
vn 0.7243 0.4182 -0.5482
vn 0.6192 0.3575 -0.6991
vn 0.4907 0.2833 -0.8240
vn 0.3433 0.1982 -0.9181
vn 0.1825 0.1053 -0.9776
vn 0.9988 -0.0000 -0.0487
vn 0.9814 -0.0000 -0.1921
vn 0.9262 -0.0000 -0.3771
vn 0.8363 -0.0000 -0.5482
vn 0.7150 -0.0000 -0.6991
vn 0.5666 -0.0000 -0.8240
vn 0.3964 -0.0000 -0.9181
vn 0.2107 -0.0000 -0.9776
vn 0.8650 -0.4994 -0.0487
vn 0.8499 -0.4907 -0.1921
vn 0.8021 -0.4631 -0.3771
vn 0.7243 -0.4182 -0.5482
vn 0.6192 -0.3575 -0.6991
vn 0.4907 -0.2833 -0.8240
vn 0.3433 -0.1982 -0.9181
vn 0.1825 -0.1053 -0.9776
vn 0.4994 -0.8650 -0.0487
vn 0.4907 -0.8499 -0.1921
vn 0.4631 -0.8021 -0.3771
vn 0.4182 -0.7243 -0.5482
vn 0.3575 -0.6192 -0.6991
vn 0.2833 -0.4907 -0.8240
vn 0.1982 -0.3433 -0.9181
vn 0.1053 -0.1825 -0.9776
vn -0.0000 -0.9988 -0.0487
vn -0.0000 -0.9814 -0.1921
vn -0.0000 -0.9262 -0.3771
vn -0.0000 -0.8363 -0.5482
vn -0.0000 -0.7150 -0.6991
vn -0.0000 -0.5666 -0.8240
vn -0.0000 -0.3964 -0.9181
vn -0.0000 -0.2107 -0.9776
vn -0.4994 -0.8650 -0.0487
vn -0.4907 -0.8499 -0.1921
vn -0.4631 -0.8021 -0.3771
vn -0.4182 -0.7243 -0.5482
vn -0.3575 -0.6192 -0.6991
vn -0.2833 -0.4907 -0.8240
vn -0.1982 -0.3433 -0.9181
vn -0.1053 -0.1825 -0.9776
vn -0.8650 -0.4994 -0.0487
vn -0.8499 -0.4907 -0.1921
vn -0.8021 -0.4631 -0.3771
vn -0.7243 -0.4182 -0.5482
vn -0.6192 -0.3575 -0.6991
vn -0.4907 -0.2833 -0.8240
vn -0.3433 -0.1982 -0.9181
vn -0.1825 -0.1053 -0.9776
vn -0.0000 -0.0000 -1.0000
vn -0.9988 -0.0000 -0.0487
vn -0.9814 -0.0000 -0.1921
vn -0.9262 -0.0000 -0.3771
vn -0.8363 -0.0000 -0.5482
vn -0.7150 -0.0000 -0.6991
vn -0.5666 -0.0000 -0.8240
vn -0.3964 -0.0000 -0.9181
vn -0.2107 -0.0000 -0.9776
vn -0.8650 0.4994 -0.0487
vn -0.8499 0.4907 -0.1921
vn -0.8021 0.4631 -0.3771
vn -0.7243 0.4182 -0.5482
vn -0.6192 0.3575 -0.6991
vn -0.4907 0.2833 -0.8240
vn -0.3433 0.1982 -0.9181
vn -0.1825 0.1053 -0.9776
vn -0.4994 0.8650 -0.0487
vn -0.4907 0.8499 -0.1921
vn -0.4631 0.8021 -0.3771
vn -0.4182 0.7243 -0.5482
vn -0.3575 0.6192 -0.6991
vn -0.2833 0.4907 -0.8240
vn -0.1982 0.3433 -0.9181
vn -0.1053 0.1825 -0.9776
vn -0.0000 0.9988 -0.0487
vn -0.0000 0.9814 -0.1921
vn -0.0000 0.9262 -0.3771
vn -0.0000 0.7150 -0.6991
vn -0.0000 0.3964 -0.9181
vn -0.0000 0.2107 -0.9776
vn 0.5000 0.8660 -0.0000
vn 0.8660 0.5000 -0.0000
vn 1.0000 -0.0000 -0.0000
vn 0.8660 -0.5000 -0.0000
vn 0.5000 -0.8660 -0.0000
vn -0.0000 -1.0000 -0.0000
vn -0.5000 -0.8660 -0.0000
vn -0.8660 -0.5000 -0.0000
vn -1.0000 -0.0000 -0.0000
vn -0.8660 0.5000 -0.0000
vn -0.5000 0.8660 -0.0000
vn -0.0000 1.0000 -0.0000
vt 0.916486 0.436820
vt 0.927453 0.436953
vt 0.926324 0.441667
vt 0.980166 0.437013
vt 0.991052 0.436886
vt 0.985408 0.466545
vt 0.975179 0.462506
vt 0.970302 0.437023
vt 0.966125 0.458714
vt 0.961376 0.437034
vt 0.957863 0.455351
vt 0.953048 0.437040
vt 0.949959 0.452050
vt 0.944820 0.437034
vt 0.942322 0.448833
vt 0.936421 0.437013
vt 0.934631 0.445438
vt 0.929438 0.452535
vt 0.923291 0.445516
vt 0.968967 0.492024
vt 0.960894 0.484377
vt 0.953862 0.477391
vt 0.947308 0.471074
vt 0.941227 0.464959
vt 0.935309 0.458870
vt 0.931216 0.481892
vt 0.927779 0.473642
vt 0.924615 0.465515
vt 0.921542 0.457078
vt 0.918847 0.447871
vt 0.943971 0.509978
vt 0.939174 0.499477
vt 0.935074 0.490426
vt 0.913554 0.447990
vt 0.913957 0.517318
vt 0.913105 0.506128
vt 0.912344 0.495784
vt 0.911680 0.486212
vt 0.911467 0.476932
vt 0.911452 0.467641
vt 0.912106 0.458155
vt 0.890659 0.483598
vt 0.893647 0.473906
vt 0.897471 0.464452
vt 0.902208 0.454980
vt 0.908402 0.445640
vt 0.883593 0.514926
vt 0.885738 0.503992
vt 0.888143 0.493573
vt 0.904515 0.440751
vt 0.854161 0.505625
vt 0.858112 0.494530
vt 0.862853 0.483707
vt 0.868805 0.473454
vt 0.875865 0.463961
vt 0.883922 0.455040
vt 0.893456 0.447092
vt 0.884481 0.419526
vt 0.875844 0.410812
vt 0.894026 0.400292
vt 0.897868 0.409748
vt 0.894271 0.426897
vt 0.902691 0.418987
vt 0.905009 0.432640
vt 0.908782 0.427979
vt 0.858068 0.379719
vt 0.854161 0.368738
vt 0.883410 0.359159
vt 0.885743 0.370225
vt 0.862822 0.390616
vt 0.888206 0.380655
vt 0.868829 0.400931
vt 0.890779 0.390656
vt 0.914101 0.356606
vt 0.913256 0.367892
vt 0.912511 0.378299
vt 0.911943 0.387850
vt 0.911765 0.397170
vt 0.911826 0.406421
vt 0.912447 0.415851
vt 0.913856 0.425788
vt 0.928119 0.400452
vt 0.924868 0.408548
vt 0.921884 0.416933
vt 0.919021 0.426058
vt 0.944301 0.364106
vt 0.939420 0.374616
vt 0.935146 0.383721
vt 0.931495 0.392262
vt 0.961037 0.389898
vt 0.953854 0.396657
vt 0.947441 0.403093
vt 0.941406 0.409221
vt 0.935488 0.415234
vt 0.929620 0.421501
vt 0.923439 0.428361
vt 0.969118 0.382385
vt 0.942397 0.425266
vt 0.934688 0.428604
vt 0.926393 0.432233
vt 0.984998 0.407698
vt 0.975177 0.411652
vt 0.966198 0.415283
vt 0.957875 0.418790
vt 0.949994 0.422058
vt 0.866180 0.688610
vt 0.866180 0.700177
vt 0.744806 0.700177
vt 0.744806 0.688610
vt 0.866180 0.607639
vt 0.866180 0.619206
vt 0.744806 0.619206
vt 0.744806 0.607639
vt 0.866180 0.630774
vt 0.744806 0.630774
vt 0.866180 0.677043
vt 0.744806 0.677043
vt 0.866180 0.642341
vt 0.744806 0.642341
vt 0.866180 0.711744
vt 0.866180 0.723311
vt 0.744806 0.723311
vt 0.744806 0.711744
vt 0.866180 0.596072
vt 0.744806 0.596072
vt 0.866180 0.734879
vt 0.744806 0.734879
vt 0.866180 0.653908
vt 0.866180 0.665475
vt 0.744806 0.665475
vt 0.744806 0.653908
s 1
f 660/947/414 690/948/444 603/949/357
f 686/950/440 685/951/439 596/952/350 597/953/351
f 687/954/441 686/950/440 597/953/351 598/955/352
f 594/956/348 687/954/441 598/955/352 599/957/353
f 688/958/442 594/956/348 599/957/353 600/959/354
f 595/960/349 688/958/442 600/959/354 601/961/355
f 689/962/443 595/960/349 601/961/355 602/963/356
f 690/948/444 689/962/443 602/963/356 603/949/357
f 603/949/357 602/963/356 610/964/364 611/965/365
f 660/947/414 603/949/357 611/965/365
f 597/953/351 596/952/350 604/966/358 605/967/359
f 598/955/352 597/953/351 605/967/359 606/968/360
f 599/957/353 598/955/352 606/968/360 607/969/361
f 600/959/354 599/957/353 607/969/361 608/970/362
f 601/961/355 600/959/354 608/970/362 609/971/363
f 602/963/356 601/961/355 609/971/363 610/964/364
f 608/970/362 607/969/361 615/972/369 616/973/370
f 609/971/363 608/970/362 616/973/370 617/974/371
f 610/964/364 609/971/363 617/974/371 618/975/372
f 611/965/365 610/964/364 618/975/372 619/976/373
f 660/947/414 611/965/365 619/976/373
f 605/967/359 604/966/358 612/977/366 613/978/367
f 606/968/360 605/967/359 613/978/367 614/979/368
f 607/969/361 606/968/360 614/979/368 615/972/369
f 660/947/414 619/976/373 627/980/381
f 613/978/367 612/977/366 620/981/374 621/982/375
f 614/979/368 613/978/367 621/982/375 622/983/376
f 615/972/369 614/979/368 622/983/376 623/984/377
f 616/973/370 615/972/369 623/984/377 624/985/378
f 617/974/371 616/973/370 624/985/378 625/986/379
f 618/975/372 617/974/371 625/986/379 626/987/380
f 619/976/373 618/975/372 626/987/380 627/980/381
f 624/985/378 623/984/377 631/988/385 632/989/386
f 625/986/379 624/985/378 632/989/386 633/990/387
f 626/987/380 625/986/379 633/990/387 634/991/388
f 627/980/381 626/987/380 634/991/388 635/992/389
f 660/947/414 627/980/381 635/992/389
f 621/982/375 620/981/374 628/993/382 629/994/383
f 622/983/376 621/982/375 629/994/383 630/995/384
f 623/984/377 622/983/376 630/995/384 631/988/385
f 660/947/414 635/992/389 643/996/397
f 629/994/383 628/993/382 636/997/390 637/998/391
f 630/995/384 629/994/383 637/998/391 638/999/392
f 631/988/385 630/995/384 638/999/392 639/1000/393
f 632/989/386 631/988/385 639/1000/393 640/1001/394
f 633/990/387 632/989/386 640/1001/394 641/1002/395
f 634/991/388 633/990/387 641/1002/395 642/1003/396
f 635/992/389 634/991/388 642/1003/396 643/996/397
f 641/1004/395 640/1005/394 648/1006/402 649/1007/403
f 642/1008/396 641/1004/395 649/1007/403 650/1009/404
f 643/1010/397 642/1008/396 650/1009/404 651/1011/405
f 660/947/414 643/1010/397 651/1011/405
f 637/1012/391 636/1013/390 644/1014/398 645/1015/399
f 638/1016/392 637/1012/391 645/1015/399 646/1017/400
f 639/1018/393 638/1016/392 646/1017/400 647/1019/401
f 640/1005/394 639/1018/393 647/1019/401 648/1006/402
f 645/1015/399 644/1014/398 652/1020/406 653/1021/407
f 646/1017/400 645/1015/399 653/1021/407 654/1022/408
f 647/1019/401 646/1017/400 654/1022/408 655/1023/409
f 648/1006/402 647/1019/401 655/1023/409 656/1024/410
f 649/1007/403 648/1006/402 656/1024/410 657/1025/411
f 650/1009/404 649/1007/403 657/1025/411 658/1026/412
f 651/1011/405 650/1009/404 658/1026/412 659/1027/413
f 660/947/414 651/1011/405 659/1027/413
f 657/1025/411 656/1024/410 665/1028/419 666/1029/420
f 658/1026/412 657/1025/411 666/1029/420 667/1030/421
f 659/1027/413 658/1026/412 667/1030/421 668/1031/422
f 660/947/414 659/1027/413 668/1031/422
f 653/1021/407 652/1020/406 661/1032/415 662/1033/416
f 654/1022/408 653/1021/407 662/1033/416 663/1034/417
f 655/1023/409 654/1022/408 663/1034/417 664/1035/418
f 656/1024/410 655/1023/409 664/1035/418 665/1028/419
f 663/1034/417 662/1033/416 670/1036/424 671/1037/425
f 664/1035/418 663/1034/417 671/1037/425 672/1038/426
f 665/1028/419 664/1035/418 672/1038/426 673/1039/427
f 666/1029/420 665/1028/419 673/1039/427 674/1040/428
f 667/1030/421 666/1029/420 674/1040/428 675/1041/429
f 668/1031/422 667/1030/421 675/1041/429 676/1042/430
f 660/947/414 668/1031/422 676/1042/430
f 662/1033/416 661/1032/415 669/1043/423 670/1036/424
f 675/1041/429 674/1040/428 682/1044/436 683/1045/437
f 676/1042/430 675/1041/429 683/1045/437 684/1046/438
f 660/947/414 676/1042/430 684/1046/438
f 670/1036/424 669/1043/423 677/1047/431 678/1048/432
f 671/1037/425 670/1036/424 678/1048/432 679/1049/433
f 672/1038/426 671/1037/425 679/1049/433 680/1050/434
f 673/1039/427 672/1038/426 680/1050/434 681/1051/435
f 674/1040/428 673/1039/427 681/1051/435 682/1044/436
f 680/1050/434 679/1049/433 687/954/441 594/956/348
f 681/1051/435 680/1050/434 594/956/348 688/958/442
f 682/1044/436 681/1051/435 688/958/442 595/960/349
f 683/1045/437 682/1044/436 595/960/349 689/962/443
f 684/1046/438 683/1045/437 689/962/443 690/948/444
f 660/947/414 684/1046/438 690/948/444
f 678/1048/432 677/1047/431 685/951/439 686/950/440
f 679/1049/433 678/1048/432 686/950/440 687/954/441
f 669/1052/423 661/1053/415 699/1054/453 700/1055/454
f 628/1056/382 620/1057/374 694/1058/448 695/1059/449
f 620/1057/374 612/1060/366 693/1061/447 694/1058/448
f 677/1062/431 669/1052/423 700/1055/454 701/1063/455
f 612/1060/366 604/1064/358 692/1065/446 693/1061/447
f 652/1066/406 644/1067/398 697/1068/451 698/1069/452
f 636/1070/390 628/1056/382 695/1059/449 696/1071/450
f 644/1067/398 636/1072/390 696/1073/450 697/1068/451
f 596/1074/350 685/1075/439 702/1076/456 691/1077/445
f 661/1053/415 652/1066/406 698/1069/452 699/1054/453
f 685/1075/439 677/1062/431 701/1063/455 702/1076/456
f 604/1064/358 596/1074/350 691/1077/445 692/1065/446
